G04 #@! TF.GenerationSoftware,KiCad,Pcbnew,5.1.0-unknown-r15133-23086dec*
G04 #@! TF.CreationDate,2019-03-17T23:05:35-07:00*
G04 #@! TF.ProjectId,PricklyPear,50726963-6b6c-4795-9065-61722e6b6963,rev?*
G04 #@! TF.SameCoordinates,Original*
G04 #@! TF.FileFunction,Profile,NP*
%FSLAX46Y46*%
G04 Gerber Fmt 4.6, Leading zero omitted, Abs format (unit mm)*
G04 Created by KiCad (PCBNEW 5.1.0-unknown-r15133-23086dec) date 2019-03-17 23:05:35*
%MOMM*%
%LPD*%
G04 APERTURE LIST*
%ADD10C,0.200000*%
G04 APERTURE END LIST*
D10*
X42339902Y47211157D02*
X41392649Y47788402D01*
X44031139Y45551638D02*
X42339902Y47211157D01*
X14544182Y11918658D02*
X16163253Y6178707D01*
X14234037Y13123677D02*
X14544182Y11918658D01*
X25673836Y46745584D02*
X25889365Y48205238D01*
X25276344Y45351838D02*
X25673836Y46745584D01*
X25604181Y45154567D02*
X25276344Y45351838D01*
X26173066Y45118738D02*
X25604181Y45154567D01*
X27387324Y45049014D02*
X26173066Y45118738D01*
X28989764Y44734989D02*
X27387324Y45049014D01*
X11696755Y23402416D02*
X10627693Y23338747D01*
X13011049Y23266956D02*
X11696755Y23402416D01*
X17903185Y59680358D02*
X17882706Y61187466D01*
X17580689Y56756827D02*
X17903185Y59680358D01*
X18855689Y56926290D02*
X17580689Y56756827D01*
X3738551Y52454271D02*
X5394314Y51814659D01*
X2259660Y53447002D02*
X3738551Y52454271D01*
X17782743Y438869D02*
X25610173Y399569D01*
X16163253Y6178707D02*
X17782743Y438869D01*
X36851864Y23292718D02*
X37484114Y24365197D01*
X37511126Y23056267D02*
X36851864Y23292718D01*
X38588713Y23030392D02*
X37511126Y23056267D01*
X40860405Y23036918D02*
X38588713Y23030392D01*
X9109371Y42737061D02*
X10206648Y41562650D01*
X8406259Y43687850D02*
X9109371Y42737061D01*
X11968111Y14974418D02*
X12680476Y15108147D01*
X10267441Y22699528D02*
X11968111Y14974418D01*
X39329434Y48183978D02*
X38277908Y48046637D01*
X40378421Y48105287D02*
X39329434Y48183978D01*
X41392649Y47788402D02*
X40378421Y48105287D01*
X33162607Y43636345D02*
X32075409Y41235810D01*
X34690756Y45780236D02*
X33162607Y43636345D01*
X35430265Y46560064D02*
X34690756Y45780236D01*
X25717206Y51144495D02*
X25297188Y52544412D01*
X25908599Y49686357D02*
X25717206Y51144495D01*
X25889365Y48205238D02*
X25908599Y49686357D01*
X38411333Y14850425D02*
X38846428Y15034260D01*
X37857480Y14806966D02*
X38411333Y14850425D01*
X23714468Y54957727D02*
X22522506Y55880394D01*
X24634485Y53830611D02*
X23714468Y54957727D01*
X25297188Y52544412D02*
X24634485Y53830611D01*
X7931855Y44728624D02*
X8406259Y43687850D01*
X7668991Y45832534D02*
X7931855Y44728624D01*
X37964471Y25499786D02*
X38544741Y27899176D01*
X37484114Y24365197D02*
X37964471Y25499786D01*
X13214249Y15005938D02*
X13602961Y14712089D01*
X12680476Y15108147D02*
X13214249Y15005938D01*
X1218470Y54615924D02*
X2259660Y53447002D01*
X513245Y55951261D02*
X1218470Y54615924D01*
X38743143Y30378655D02*
X38710148Y32825989D01*
X38544741Y27899176D02*
X38743143Y30378655D01*
X12393627Y35912335D02*
X12016704Y34509184D01*
X12987264Y37237352D02*
X12393627Y35912335D01*
X17333040Y64115303D02*
X16743340Y65458269D01*
X17703448Y62674321D02*
X17333040Y64115303D01*
X17882706Y61187466D02*
X17703448Y62674321D01*
X37170707Y14920619D02*
X37857480Y14806966D01*
X35304016Y7640481D02*
X37170707Y14920619D01*
X30389247Y43940513D02*
X28989764Y44734989D01*
X31459790Y42746987D02*
X30389247Y43940513D01*
X32075409Y41235810D02*
X31459790Y42746987D01*
X3143988Y66558529D02*
X1759433Y64709881D01*
X13823812Y38458770D02*
X12987264Y37237352D01*
X12703232Y39494863D02*
X13823812Y38458770D01*
X45382171Y43561554D02*
X44031139Y45551638D01*
X45881706Y42472730D02*
X45382171Y43561554D01*
X46444042Y38976001D02*
X46432003Y40167882D01*
X46095923Y37666303D02*
X46444042Y38976001D01*
X20136152Y56817911D02*
X18855689Y56926290D01*
X21374338Y56459882D02*
X20136152Y56817911D01*
X22522506Y55880394D02*
X21374338Y56459882D01*
X36296105Y47212517D02*
X35430265Y46560064D01*
X37256059Y47715429D02*
X36296105Y47212517D01*
X38277908Y48046637D02*
X37256059Y47715429D01*
X14790163Y67694661D02*
X13542069Y68398810D01*
X15905372Y66664346D02*
X14790163Y67694661D01*
X16743340Y65458269D02*
X15905372Y66664346D01*
X39736145Y17473349D02*
X40860405Y23036918D01*
X39580768Y16260671D02*
X39736145Y17473349D01*
X11451056Y40505703D02*
X12703232Y39494863D01*
X10206648Y41562650D02*
X11451056Y40505703D01*
X9334678Y69122480D02*
X9334678Y69122530D01*
X7600501Y46972725D02*
X7668991Y45832534D01*
X7709220Y48122347D02*
X7600501Y46972725D01*
X33437602Y360269D02*
X35304016Y7640481D01*
X25610173Y399569D02*
X33437602Y360269D01*
X39176925Y15341736D02*
X39580768Y16260671D01*
X38846428Y15034260D02*
X39176925Y15341736D01*
X10329992Y23114608D02*
X10267441Y22699528D01*
X10627693Y23338747D02*
X10329992Y23114608D01*
X134424Y60459338D02*
X0Y58928000D01*
X490438Y61964790D02*
X134424Y60459338D01*
X1041092Y63397318D02*
X490438Y61964790D01*
X1759433Y64709881D02*
X1041092Y63397318D01*
X46238104Y41337483D02*
X45881706Y42472730D01*
X46432003Y40167882D02*
X46238104Y41337483D01*
X41207973Y33547177D02*
X42434674Y34082133D01*
X38710148Y32825989D02*
X41207973Y33547177D01*
X10765981Y69075340D02*
X9334678Y69122480D01*
X12184560Y68846577D02*
X10765981Y69075340D01*
X13542069Y68398810D02*
X12184560Y68846577D01*
X7977979Y49254547D02*
X7709220Y48122347D01*
X8926953Y51359274D02*
X7977979Y49254547D01*
X13880142Y14270897D02*
X14234037Y13123677D01*
X13602961Y14712089D02*
X13880142Y14270897D01*
X12456588Y27250349D02*
X13146871Y25222572D01*
X11921900Y30105724D02*
X12456588Y27250349D01*
X3995636Y67338390D02*
X3143988Y66558529D01*
X14106997Y23308788D02*
X13011049Y23266956D01*
X13146871Y25222572D02*
X14106997Y23308788D01*
X43582856Y34747010D02*
X44615836Y35562434D01*
X42434674Y34082133D02*
X43582856Y34747010D01*
X9334678Y69122530D02*
X8165505Y69103602D01*
X8165505Y69103602D02*
X7034191Y68898961D01*
X11830304Y33053367D02*
X11921900Y30105724D01*
X12016704Y34509184D02*
X11830304Y33053367D01*
X7034191Y68898961D02*
X5953560Y68525369D01*
X5953560Y68525369D02*
X4936434Y67999591D01*
X4936434Y67999591D02*
X3995636Y67338390D01*
X7149573Y51469287D02*
X8926953Y51359274D01*
X5394314Y51814659D02*
X7149573Y51469287D01*
X45470023Y36531989D02*
X46095923Y37666303D01*
X44615836Y35562434D02*
X45470023Y36531989D01*
X116312Y57404718D02*
X513245Y55951261D01*
X0Y58928000D02*
X116312Y57404718D01*
M02*
