G04 #@! TF.GenerationSoftware,KiCad,Pcbnew,5.1.0-unknown-r15165-fdfe5eab*
G04 #@! TF.CreationDate,2019-03-23T01:30:35-07:00*
G04 #@! TF.ProjectId,PricklyPear,50726963-6b6c-4795-9065-61722e6b6963,rev?*
G04 #@! TF.SameCoordinates,Original*
G04 #@! TF.FileFunction,Copper,L2,Bot*
G04 #@! TF.FilePolarity,Positive*
%FSLAX46Y46*%
G04 Gerber Fmt 4.6, Leading zero omitted, Abs format (unit mm)*
G04 Created by KiCad (PCBNEW 5.1.0-unknown-r15165-fdfe5eab) date 2019-03-23 01:30:35*
%MOMM*%
%LPD*%
G04 APERTURE LIST*
%ADD10C,0.100000*%
%ADD11R,4.000000X4.000000*%
%ADD12C,2.762000*%
%ADD13R,1.800000X1.800000*%
%ADD14C,1.800000*%
%ADD15C,1.508000*%
%ADD16C,1.308000*%
%ADD17C,0.250000*%
G04 APERTURE END LIST*
D10*
G36*
X18040246Y47399270D02*
G01*
X20579541Y42665692D01*
X22005237Y40408169D01*
X24481940Y36871071D01*
X25064694Y36038812D01*
X25532947Y35591495D01*
X25897168Y35071333D01*
X27520461Y33417284D01*
X27655681Y33667005D01*
X27686869Y33843882D01*
X27000083Y34603296D01*
X25949076Y35882872D01*
X25043758Y36954383D01*
X23149808Y39659223D01*
X21318235Y42717816D01*
X18841316Y47805147D01*
X18591595Y47940367D01*
X18175466Y47648991D01*
X18040246Y47399270D01*
G37*
D11*
X25400000Y16764000D03*
D12*
X14850000Y16764000D03*
X35950000Y16764000D03*
D13*
X7112000Y65024000D03*
D14*
X9652000Y65024000D03*
X41402000Y42164000D03*
D13*
X38862000Y42164000D03*
D15*
X16510000Y34480000D03*
X16510000Y26480000D03*
D16*
X16510000Y32480000D03*
X16510000Y30480000D03*
X16510000Y28480000D03*
D17*
X16510000Y32480000D02*
X29178000Y32480000D01*
X29178000Y32480000D02*
X38862000Y42164000D01*
X16510000Y32480000D02*
X23590000Y32480000D01*
X11430000Y60706000D02*
X7112000Y65024000D01*
X11430000Y44640000D02*
X11430000Y60706000D01*
X23590000Y32480000D02*
X11430000Y44640000D01*
X16510000Y30480000D02*
X20320000Y30480000D01*
X25400000Y25400000D02*
X25400000Y16764000D01*
X20320000Y30480000D02*
X25400000Y25400000D01*
M02*
