G04 #@! TF.GenerationSoftware,KiCad,Pcbnew,5.1.0-unknown-r15133-23086dec*
G04 #@! TF.CreationDate,2019-03-17T23:05:35-07:00*
G04 #@! TF.ProjectId,PricklyPear,50726963-6b6c-4795-9065-61722e6b6963,rev?*
G04 #@! TF.SameCoordinates,Original*
G04 #@! TF.FileFunction,Legend,Bot*
G04 #@! TF.FilePolarity,Positive*
%FSLAX46Y46*%
G04 Gerber Fmt 4.6, Leading zero omitted, Abs format (unit mm)*
G04 Created by KiCad (PCBNEW 5.1.0-unknown-r15133-23086dec) date 2019-03-17 23:05:35*
%MOMM*%
%LPD*%
G04 APERTURE LIST*
%ADD10C,0.300000*%
%ADD11C,0.250000*%
%ADD12C,0.150000*%
G04 APERTURE END LIST*
D10*
X28542857Y3020285D02*
X28614285Y2948857D01*
X28828571Y2877428D01*
X28971428Y2877428D01*
X29185714Y2948857D01*
X29328571Y3091714D01*
X29400000Y3234571D01*
X29471428Y3520285D01*
X29471428Y3734571D01*
X29400000Y4020285D01*
X29328571Y4163142D01*
X29185714Y4306000D01*
X28971428Y4377428D01*
X28828571Y4377428D01*
X28614285Y4306000D01*
X28542857Y4234571D01*
X27042857Y2877428D02*
X27542857Y3591714D01*
X27900000Y2877428D02*
X27900000Y4377428D01*
X27328571Y4377428D01*
X27185714Y4306000D01*
X27114285Y4234571D01*
X27042857Y4091714D01*
X27042857Y3877428D01*
X27114285Y3734571D01*
X27185714Y3663142D01*
X27328571Y3591714D01*
X27900000Y3591714D01*
X26471428Y4234571D02*
X26400000Y4306000D01*
X26257142Y4377428D01*
X25900000Y4377428D01*
X25757142Y4306000D01*
X25685714Y4234571D01*
X25614285Y4091714D01*
X25614285Y3948857D01*
X25685714Y3734571D01*
X26542857Y2877428D01*
X25614285Y2877428D01*
X24685714Y4377428D02*
X24542857Y4377428D01*
X24400000Y4306000D01*
X24328571Y4234571D01*
X24257142Y4091714D01*
X24185714Y3806000D01*
X24185714Y3448857D01*
X24257142Y3163142D01*
X24328571Y3020285D01*
X24400000Y2948857D01*
X24542857Y2877428D01*
X24685714Y2877428D01*
X24828571Y2948857D01*
X24900000Y3020285D01*
X24971428Y3163142D01*
X25042857Y3448857D01*
X25042857Y3806000D01*
X24971428Y4091714D01*
X24900000Y4234571D01*
X24828571Y4306000D01*
X24685714Y4377428D01*
X23685714Y4377428D02*
X22757142Y4377428D01*
X23257142Y3806000D01*
X23042857Y3806000D01*
X22900000Y3734571D01*
X22828571Y3663142D01*
X22757142Y3520285D01*
X22757142Y3163142D01*
X22828571Y3020285D01*
X22900000Y2948857D01*
X23042857Y2877428D01*
X23471428Y2877428D01*
X23614285Y2948857D01*
X23685714Y3020285D01*
X22185714Y4234571D02*
X22114285Y4306000D01*
X21971428Y4377428D01*
X21614285Y4377428D01*
X21471428Y4306000D01*
X21400000Y4234571D01*
X21328571Y4091714D01*
X21328571Y3948857D01*
X21400000Y3734571D01*
X22257142Y2877428D01*
X21328571Y2877428D01*
D11*
X12420226Y50758874D02*
X12353906Y50770568D01*
X12182258Y50766643D01*
X12076930Y50751024D01*
X11932595Y50708091D01*
X11710246Y50610533D01*
X11554217Y50501280D01*
X11386494Y50325707D01*
X11296785Y50204760D01*
X11246084Y50111127D01*
X11183689Y49951173D01*
X11171995Y49884852D01*
X12576417Y49705597D02*
X12588111Y49771918D01*
X12545179Y49916252D01*
X12490553Y49994267D01*
X12369606Y50083975D01*
X12236965Y50107364D01*
X12131638Y50091745D01*
X11948295Y50021499D01*
X11831274Y49939560D01*
X11702558Y49791300D01*
X11651857Y49697666D01*
X11628468Y49565025D01*
X11671401Y49420690D01*
X11726027Y49342676D01*
X11846974Y49252967D01*
X11913294Y49241273D01*
X13157682Y49705678D02*
X13145988Y49639358D01*
X13083592Y49479404D01*
X13032891Y49385770D01*
X12943182Y49264823D01*
X12775459Y49089250D01*
X12619430Y48979998D01*
X12397081Y48882439D01*
X12252746Y48839507D01*
X12147419Y48823888D01*
X11975771Y48819963D01*
X11909450Y48831657D01*
X12818554Y47782386D02*
X13146312Y47314300D01*
X13801585Y48121919D02*
X12982433Y47548343D01*
X14336154Y47275454D02*
X14320535Y47380782D01*
X14211282Y47536811D01*
X14117648Y47587512D01*
X14012321Y47571893D01*
X13700263Y47353388D01*
X13649562Y47259754D01*
X13665181Y47154426D01*
X13774433Y46998398D01*
X13868067Y46947696D01*
X13973395Y46963315D01*
X14051409Y47017942D01*
X13856292Y47462640D01*
X14648293Y46912695D02*
X14102191Y46530311D01*
X14258220Y46639563D02*
X14207519Y46545930D01*
X14195825Y46479609D01*
X14211444Y46374282D01*
X14266070Y46296267D01*
X15003364Y46405601D02*
X14457262Y46023217D01*
X14613291Y46132469D02*
X14562590Y46038836D01*
X14550896Y45972515D01*
X14566515Y45867188D01*
X14621141Y45789173D01*
X15358435Y45898507D02*
X14812334Y45516122D01*
X14539283Y45324930D02*
X14550977Y45391251D01*
X14617297Y45379557D01*
X14605603Y45313236D01*
X14539283Y45324930D01*
X14617297Y45379557D01*
X15358678Y44154713D02*
X15467930Y43998684D01*
X15561564Y43947983D01*
X15694205Y43924595D01*
X15877547Y43994840D01*
X16150598Y44186032D01*
X16279313Y44334292D01*
X16302702Y44466933D01*
X16287083Y44572261D01*
X16177830Y44728289D01*
X16084196Y44778991D01*
X15951555Y44802379D01*
X15768213Y44732134D01*
X15495163Y44540941D01*
X15366447Y44392682D01*
X15343059Y44260041D01*
X15358678Y44154713D01*
X16915285Y43675094D02*
X16096133Y43101518D01*
X16876278Y43647781D02*
X16860659Y43753108D01*
X16751406Y43909137D01*
X16657773Y43959839D01*
X16591452Y43971533D01*
X16486125Y43955914D01*
X16252081Y43792035D01*
X16201380Y43698401D01*
X16189686Y43632081D01*
X16205305Y43526753D01*
X16314558Y43370724D01*
X16408191Y43320023D01*
X17434235Y42933956D02*
X17005156Y42633512D01*
X16899828Y42617893D01*
X16806195Y42668594D01*
X16696942Y42824623D01*
X16681323Y42929950D01*
X17395228Y42906643D02*
X17379609Y43011971D01*
X17243043Y43207007D01*
X17149410Y43257708D01*
X17044082Y43242089D01*
X16966068Y43187463D01*
X16915366Y43093829D01*
X16930985Y42988502D01*
X17067551Y42793466D01*
X17083170Y42688138D01*
X17375927Y41439825D02*
X17364233Y41373505D01*
X17379852Y41268177D01*
X17516418Y41073141D01*
X17610051Y41022440D01*
X17676372Y41010746D01*
X17781699Y41026365D01*
X17859714Y41080991D01*
X17949422Y41201938D01*
X18089751Y41997783D01*
X18444822Y41490689D01*
X17980742Y40410018D02*
X18035368Y40332004D01*
X18129001Y40281302D01*
X18195322Y40269608D01*
X18300649Y40285227D01*
X18483992Y40355473D01*
X18679028Y40492038D01*
X18807744Y40640298D01*
X18858445Y40733932D01*
X18870139Y40800252D01*
X18854520Y40905580D01*
X18799894Y40983594D01*
X18706260Y41034296D01*
X18639940Y41045990D01*
X18534612Y41030371D01*
X18351270Y40960125D01*
X18156234Y40823560D01*
X18027518Y40675300D01*
X17976816Y40581666D01*
X17965122Y40515346D01*
X17980742Y40410018D01*
X19537349Y39930399D02*
X19209591Y40398486D01*
X19373470Y40164442D02*
X18554318Y39590866D01*
X18616713Y39750820D01*
X18640101Y39883461D01*
X18624482Y39988788D01*
X19810481Y39540327D02*
X19919733Y39384298D01*
X19935352Y39278970D01*
X19923658Y39212650D01*
X19861263Y39052696D01*
X19732547Y38904436D01*
X19420489Y38685930D01*
X19315162Y38670311D01*
X19248841Y38682005D01*
X19155208Y38732707D01*
X19045955Y38888736D01*
X19030336Y38994063D01*
X19042030Y39060384D01*
X19092731Y39154017D01*
X19287767Y39290583D01*
X19393095Y39306202D01*
X19459415Y39294508D01*
X19553049Y39243807D01*
X19662302Y39087778D01*
X19677921Y38982450D01*
X19666227Y38916130D01*
X19615525Y38822496D01*
X14583510Y49890204D02*
X14595204Y49956525D01*
X14552272Y50100859D01*
X14497645Y50178874D01*
X14376698Y50268582D01*
X14244058Y50291971D01*
X14138730Y50276351D01*
X13955388Y50206106D01*
X13838366Y50124167D01*
X13709650Y49975907D01*
X13658949Y49882273D01*
X13635561Y49749632D01*
X13678493Y49605297D01*
X13733119Y49527283D01*
X13854066Y49437574D01*
X13920387Y49425880D01*
X15157086Y49071052D02*
X15168780Y49137372D01*
X15125848Y49281707D01*
X15071222Y49359722D01*
X14950275Y49449430D01*
X14817634Y49472819D01*
X14712306Y49457199D01*
X14528964Y49386954D01*
X14411943Y49305015D01*
X14283227Y49156755D01*
X14232525Y49063121D01*
X14209137Y48930480D01*
X14252070Y48786145D01*
X14306696Y48708131D01*
X14427643Y48618422D01*
X14493963Y48606728D01*
X15168861Y48556108D02*
X15605872Y47931992D01*
X15953174Y47186930D02*
X16074121Y47097221D01*
X16140441Y47085527D01*
X16245769Y47101146D01*
X16362790Y47183085D01*
X16413492Y47276719D01*
X16425186Y47343039D01*
X16409567Y47448367D01*
X16191061Y47760425D01*
X15371909Y47186849D01*
X15563101Y46913798D01*
X15656735Y46863097D01*
X15723055Y46851402D01*
X15828383Y46867022D01*
X15906398Y46921648D01*
X15957099Y47015281D01*
X15968793Y47081602D01*
X15953174Y47186930D01*
X15761982Y47459980D01*
X16483818Y46512112D02*
X16873890Y46785244D01*
X15863546Y46484718D02*
X16483818Y46512112D01*
X16245931Y45938617D01*
X16944217Y46020637D02*
X17381227Y45396521D01*
X17900097Y45236648D02*
X18021043Y45146940D01*
X18157609Y44951904D01*
X18173228Y44846576D01*
X18161534Y44780256D01*
X18110833Y44686622D01*
X18032818Y44631996D01*
X17927491Y44616377D01*
X17861170Y44628071D01*
X17767537Y44678772D01*
X17619277Y44807488D01*
X17525643Y44858189D01*
X17459323Y44869883D01*
X17353995Y44854264D01*
X17275981Y44799638D01*
X17225279Y44706004D01*
X17213585Y44639684D01*
X17229204Y44534356D01*
X17365770Y44339320D01*
X17486717Y44249611D01*
X18251324Y44319938D02*
X18524455Y43929865D01*
X18430741Y44561831D02*
X17802781Y43715204D01*
X18813125Y44015730D01*
X19141045Y42385114D02*
X19687146Y42767498D01*
X18692421Y42361645D02*
X19140964Y42966378D01*
X19496035Y42459284D01*
X19909577Y42283792D02*
X19975897Y42272098D01*
X19987591Y42338419D01*
X19921271Y42350113D01*
X19909577Y42283792D01*
X19987591Y42338419D01*
X19550823Y41218741D02*
X19605450Y41140726D01*
X19699083Y41090025D01*
X19765404Y41078331D01*
X19870731Y41093950D01*
X20054073Y41164195D01*
X20249110Y41300761D01*
X20377825Y41449021D01*
X20428527Y41542655D01*
X20440221Y41608975D01*
X20424602Y41714303D01*
X20369975Y41792317D01*
X20276342Y41843019D01*
X20210021Y41854713D01*
X20104694Y41839094D01*
X19921352Y41768848D01*
X19726315Y41632282D01*
X19597600Y41484022D01*
X19546898Y41390389D01*
X19535204Y41324068D01*
X19550823Y41218741D01*
X14710000Y52013398D02*
X14830947Y51923689D01*
X14897267Y51911995D01*
X15002595Y51927614D01*
X15119616Y52009554D01*
X15170318Y52103188D01*
X15182012Y52169508D01*
X15166393Y52274836D01*
X14947887Y52586894D01*
X14128735Y52013317D01*
X14319927Y51740266D01*
X14413561Y51689565D01*
X14479881Y51677871D01*
X14585209Y51693490D01*
X14663223Y51748116D01*
X14713925Y51841750D01*
X14725619Y51908070D01*
X14710000Y52013398D01*
X14518808Y52286449D01*
X15603403Y51650720D02*
X15509770Y51701421D01*
X15443449Y51713115D01*
X15338122Y51697496D01*
X15104078Y51533617D01*
X15053377Y51439984D01*
X15041683Y51373663D01*
X15057302Y51268335D01*
X15139241Y51151314D01*
X15232875Y51100612D01*
X15299195Y51088918D01*
X15404523Y51104537D01*
X15638566Y51268416D01*
X15689268Y51362050D01*
X15700962Y51428370D01*
X15685343Y51533698D01*
X15603403Y51650720D01*
X16286232Y50675539D02*
X15857153Y50375094D01*
X15751825Y50359475D01*
X15658191Y50410176D01*
X15548939Y50566205D01*
X15533320Y50671533D01*
X16247225Y50648226D02*
X16231606Y50753553D01*
X16095040Y50948589D01*
X16001407Y50999291D01*
X15896079Y50983672D01*
X15818064Y50929045D01*
X15767363Y50835412D01*
X15782982Y50730084D01*
X15919548Y50535048D01*
X15935167Y50429720D01*
X16559364Y50285466D02*
X16013263Y49903082D01*
X16169292Y50012335D02*
X16118590Y49918701D01*
X16106896Y49852381D01*
X16122515Y49747053D01*
X16177142Y49669039D01*
X17160254Y49427307D02*
X16341102Y48853731D01*
X17121246Y49399994D02*
X17105627Y49505322D01*
X16996375Y49661351D01*
X16902741Y49712052D01*
X16836421Y49723746D01*
X16731093Y49708127D01*
X16497050Y49544248D01*
X16446348Y49450614D01*
X16434654Y49384294D01*
X16450273Y49278966D01*
X16559526Y49122937D01*
X16653159Y49072236D01*
X16969304Y47956564D02*
X17979648Y48257090D01*
X17351689Y47410463D01*
X18541531Y47371617D02*
X18525912Y47476945D01*
X18416659Y47632974D01*
X18323026Y47683675D01*
X18217698Y47668056D01*
X17905640Y47449551D01*
X17854939Y47355917D01*
X17870558Y47250590D01*
X17979810Y47094561D01*
X18073444Y47043859D01*
X18178772Y47059479D01*
X18256786Y47114105D01*
X18061669Y47558804D01*
X18853670Y47008858D02*
X18307568Y46626474D01*
X18463597Y46735727D02*
X18412896Y46642093D01*
X18401202Y46575773D01*
X18416821Y46470445D01*
X18471447Y46392430D01*
X19142420Y46513458D02*
X19236054Y46462757D01*
X19345307Y46306728D01*
X19360926Y46201400D01*
X19310224Y46107767D01*
X19271217Y46080453D01*
X19165890Y46064834D01*
X19072256Y46115536D01*
X18990316Y46232557D01*
X18896683Y46283259D01*
X18791355Y46267640D01*
X18752348Y46240326D01*
X18701647Y46146693D01*
X18717266Y46041365D01*
X18799205Y45924344D01*
X18892839Y45873642D01*
X19673065Y45838641D02*
X19126963Y45456257D01*
X18853913Y45265065D02*
X18865607Y45331385D01*
X18931927Y45319691D01*
X18920233Y45253370D01*
X18853913Y45265065D01*
X18931927Y45319691D01*
X20028136Y45331547D02*
X19934502Y45382248D01*
X19868182Y45393942D01*
X19762854Y45378323D01*
X19528811Y45214444D01*
X19478109Y45120811D01*
X19466415Y45054490D01*
X19482034Y44949163D01*
X19563974Y44832141D01*
X19657607Y44781440D01*
X19723928Y44769745D01*
X19829255Y44785365D01*
X20063299Y44949244D01*
X20114000Y45042877D01*
X20125694Y45109197D01*
X20110075Y45214525D01*
X20028136Y45331547D01*
X19919045Y44325047D02*
X20465146Y44707431D01*
X19997059Y44379673D02*
X19985365Y44313353D01*
X20000984Y44208025D01*
X20082924Y44091003D01*
X20176558Y44040302D01*
X20281885Y44055921D01*
X20710965Y44356366D01*
X20906082Y43911667D02*
X20972402Y43899973D01*
X20984096Y43966293D01*
X20917776Y43977988D01*
X20906082Y43911667D01*
X20984096Y43966293D01*
X20477002Y43611222D02*
X20543323Y43599528D01*
X20555017Y43665849D01*
X20488696Y43677543D01*
X20477002Y43611222D01*
X20555017Y43665849D01*
X21994684Y42523026D02*
X21666926Y42991112D01*
X21830805Y42757069D02*
X21011652Y42183493D01*
X21074048Y42343447D01*
X21097436Y42476087D01*
X21081817Y42581415D01*
X22162488Y42117334D02*
X22228808Y42105640D01*
X22240502Y42171960D01*
X22174182Y42183654D01*
X22162488Y42117334D01*
X22240502Y42171960D01*
X21803734Y41052283D02*
X21858361Y40974268D01*
X21951994Y40923567D01*
X22018315Y40911873D01*
X22123642Y40927492D01*
X22306984Y40997737D01*
X22502021Y41134303D01*
X22630736Y41282563D01*
X22681438Y41376196D01*
X22693132Y41442517D01*
X22677513Y41547845D01*
X22622886Y41625859D01*
X22529253Y41676560D01*
X22462932Y41688254D01*
X22357605Y41672635D01*
X22174263Y41602390D01*
X21979226Y41465824D01*
X21850511Y41317564D01*
X21799809Y41223931D01*
X21788115Y41157610D01*
X21803734Y41052283D01*
X11902044Y59987840D02*
X11082892Y59414263D01*
X12147863Y59636775D02*
X11718783Y59336330D01*
X11613456Y59320711D01*
X11519822Y59371412D01*
X11437883Y59488434D01*
X11422264Y59593762D01*
X11433958Y59660082D01*
X11792954Y58981340D02*
X12011459Y58669282D01*
X11601843Y58673126D02*
X12303973Y59164763D01*
X12409300Y59180382D01*
X12502934Y59129681D01*
X12557560Y59051666D01*
X12120712Y58513253D02*
X12339217Y58201195D01*
X11929600Y58205039D02*
X12631731Y58696676D01*
X12737058Y58712295D01*
X12830692Y58661594D01*
X12885318Y58583579D01*
X12530409Y57928144D02*
X13349561Y58501721D01*
X12569416Y57955457D02*
X12585035Y57850130D01*
X12694288Y57694101D01*
X12787922Y57643400D01*
X12854242Y57631705D01*
X12959570Y57647325D01*
X13193613Y57811204D01*
X13244314Y57904837D01*
X13256009Y57971158D01*
X13240389Y58076485D01*
X13131137Y58232514D01*
X13037503Y58283215D01*
X13529140Y57581085D02*
X13622774Y57530384D01*
X13732026Y57374355D01*
X13747646Y57269027D01*
X13696944Y57175394D01*
X13657937Y57148080D01*
X13552609Y57132461D01*
X13458976Y57183163D01*
X13377036Y57300184D01*
X13283403Y57350886D01*
X13178075Y57335267D01*
X13139068Y57307953D01*
X13088366Y57214320D01*
X13103986Y57108992D01*
X13185925Y56991971D01*
X13279559Y56941269D01*
X13981770Y56851642D02*
X14048090Y56839948D01*
X14059784Y56906268D01*
X13993464Y56917962D01*
X13981770Y56851642D01*
X14059784Y56906268D01*
X13552690Y56551197D02*
X13619011Y56539503D01*
X13630705Y56605823D01*
X13564384Y56617517D01*
X13552690Y56551197D01*
X13630705Y56605823D01*
X13884454Y55330197D02*
X14446013Y56769783D01*
X14485344Y54472038D02*
X15046902Y55911624D01*
X15234412Y54066428D02*
X15897535Y54530751D01*
X15948237Y54624385D01*
X15959931Y54690705D01*
X15944312Y54796033D01*
X15862372Y54913055D01*
X15768739Y54963756D01*
X15741506Y54421499D02*
X15725887Y54526826D01*
X15616635Y54682855D01*
X15523001Y54733557D01*
X15456681Y54745251D01*
X15351353Y54729632D01*
X15117310Y54565753D01*
X15066608Y54472119D01*
X15054914Y54405799D01*
X15070533Y54300471D01*
X15179786Y54144442D01*
X15273420Y54093741D01*
X16053645Y54058739D02*
X15507544Y53676355D01*
X15234493Y53485163D02*
X15246187Y53551483D01*
X15312508Y53539789D01*
X15300814Y53473469D01*
X15234493Y53485163D01*
X15312508Y53539789D01*
X15698736Y53403304D02*
X15917241Y53091247D01*
X15507625Y53095091D02*
X16209755Y53586728D01*
X16315083Y53602347D01*
X16408716Y53551645D01*
X16463343Y53473631D01*
X16654535Y53200580D02*
X15835383Y52627004D01*
X16900353Y52849515D02*
X16471274Y52549070D01*
X16365946Y52533451D01*
X16272313Y52584152D01*
X16190373Y52701174D01*
X16174754Y52806502D01*
X16186448Y52872822D01*
X16873202Y51725993D02*
X17419304Y52108377D01*
X16627384Y52077058D02*
X17056463Y52377503D01*
X17161791Y52393122D01*
X17255425Y52342421D01*
X17337364Y52225399D01*
X17352983Y52120071D01*
X17341289Y52053751D01*
X17692435Y51718305D02*
X16873283Y51144729D01*
X17185341Y51363234D02*
X17200960Y51257906D01*
X17310213Y51101877D01*
X17403846Y51051176D01*
X17470167Y51039482D01*
X17575494Y51055101D01*
X17809538Y51218980D01*
X17860239Y51312614D01*
X17871933Y51378934D01*
X17856314Y51484262D01*
X17747061Y51640291D01*
X17653428Y51690992D01*
X18133371Y50922541D02*
X18199691Y50910847D01*
X18211385Y50977167D01*
X18145065Y50988862D01*
X18133371Y50922541D01*
X18211385Y50977167D01*
X18691328Y50208717D02*
X18675709Y50314044D01*
X18566456Y50470073D01*
X18472823Y50520775D01*
X18406502Y50532469D01*
X18301175Y50516850D01*
X18067131Y50352971D01*
X18016430Y50259337D01*
X18004736Y50193017D01*
X18020355Y50087689D01*
X18129608Y49931660D01*
X18223241Y49880959D01*
X19058093Y49767943D02*
X18964460Y49818644D01*
X18898139Y49830338D01*
X18792812Y49814719D01*
X18558768Y49650840D01*
X18508067Y49557207D01*
X18496373Y49490886D01*
X18511992Y49385559D01*
X18593931Y49268537D01*
X18687565Y49217836D01*
X18753885Y49206142D01*
X18859213Y49221761D01*
X19093257Y49385640D01*
X19143958Y49479273D01*
X19155652Y49545594D01*
X19140033Y49650921D01*
X19058093Y49767943D01*
X19495104Y49143827D02*
X18949003Y48761443D01*
X19027017Y48816069D02*
X19015323Y48749749D01*
X19030942Y48644421D01*
X19112882Y48527399D01*
X19206515Y48476698D01*
X19311843Y48492317D01*
X19740922Y48792762D01*
X19311843Y48492317D02*
X19261141Y48398684D01*
X19276761Y48293356D01*
X19358700Y48176334D01*
X19452334Y48125633D01*
X19557661Y48141252D01*
X19986741Y48441697D01*
X19811411Y46865626D02*
X20372969Y48305212D01*
X20232721Y46928103D02*
X20451227Y46616045D01*
X20041610Y46619889D02*
X20743740Y47111526D01*
X20849068Y47127145D01*
X20942702Y47076443D01*
X20997328Y46998429D01*
X21368018Y46386007D02*
X21352399Y46491335D01*
X21243146Y46647364D01*
X21149513Y46698065D01*
X21044185Y46682446D01*
X20732127Y46463941D01*
X20681426Y46370307D01*
X20697045Y46264979D01*
X20806298Y46108951D01*
X20899931Y46058249D01*
X21005259Y46073868D01*
X21083273Y46128495D01*
X20888156Y46573193D01*
X21680157Y46023248D02*
X21134056Y45640864D01*
X21290085Y45750116D02*
X21239383Y45656483D01*
X21227689Y45590162D01*
X21243308Y45484835D01*
X21297935Y45406820D01*
X22035228Y45516154D02*
X21489127Y45133770D01*
X21645156Y45243022D02*
X21594454Y45149389D01*
X21582760Y45083068D01*
X21598379Y44977741D01*
X21653006Y44899726D01*
X22390299Y45009060D02*
X21844198Y44626675D01*
X21571147Y44435483D02*
X21582841Y44501804D01*
X21649162Y44490110D01*
X21637468Y44423789D01*
X21571147Y44435483D01*
X21649162Y44490110D01*
X22663431Y44618987D02*
X21844279Y44045411D01*
X22405999Y44322467D02*
X22881936Y44306929D01*
X22335835Y43924545D02*
X22429387Y44455108D01*
X23209694Y43838842D02*
X23116061Y43889544D01*
X23049740Y43901238D01*
X22944413Y43885619D01*
X22710369Y43721740D01*
X22659668Y43628106D01*
X22647974Y43561786D01*
X22663593Y43456458D01*
X22745532Y43339436D01*
X22839166Y43288735D01*
X22905486Y43277041D01*
X23010814Y43292660D01*
X23244857Y43456539D01*
X23295559Y43550173D01*
X23307253Y43616493D01*
X23291634Y43721821D01*
X23209694Y43838842D01*
X23198243Y42028728D02*
X23759802Y43468314D01*
X23701493Y41974183D02*
X24520645Y42547759D01*
X23740500Y42001496D02*
X23756119Y41896169D01*
X23865372Y41740140D01*
X23959006Y41689438D01*
X24025326Y41677744D01*
X24130654Y41693363D01*
X24364697Y41857242D01*
X24415398Y41950876D01*
X24427092Y42017196D01*
X24411473Y42122524D01*
X24302221Y42278553D01*
X24208587Y42329254D01*
X24766545Y41615430D02*
X24220443Y41233045D01*
X24376472Y41342298D02*
X24325771Y41248665D01*
X24314077Y41182344D01*
X24329696Y41077017D01*
X24384322Y40999002D01*
X25121616Y41108336D02*
X24575514Y40725951D01*
X24302464Y40534759D02*
X24314158Y40601080D01*
X24380478Y40589386D01*
X24368784Y40523065D01*
X24302464Y40534759D01*
X24380478Y40589386D01*
X25601559Y40339885D02*
X25585939Y40445213D01*
X25476687Y40601242D01*
X25383053Y40651943D01*
X25316733Y40663637D01*
X25211405Y40648018D01*
X24977362Y40484139D01*
X24926660Y40390505D01*
X24914966Y40324185D01*
X24930585Y40218857D01*
X25039838Y40062828D01*
X25133472Y40012127D01*
X25886384Y40016133D02*
X25067232Y39442556D01*
X25628953Y39719613D02*
X26104890Y39704075D01*
X25558788Y39321691D02*
X25652341Y39852254D01*
X26432648Y39235988D02*
X26339014Y39286689D01*
X26233686Y39271070D01*
X25531556Y38779433D01*
X26050425Y38619560D02*
X26733092Y38806908D01*
X26323557Y38229488D02*
X26733092Y38806908D01*
X26873502Y39021489D01*
X26885196Y39087809D01*
X26869577Y39193137D01*
X26542062Y37917430D02*
X27361214Y38491007D01*
X26581069Y37944743D02*
X26596688Y37839416D01*
X26705941Y37683387D01*
X26799575Y37632685D01*
X26865895Y37620991D01*
X26971223Y37636610D01*
X27205266Y37800489D01*
X27255967Y37894123D01*
X27267662Y37960443D01*
X27252042Y38065771D01*
X27142790Y38221800D01*
X27049156Y38272501D01*
X27786612Y37219306D02*
X27770993Y37324633D01*
X27661740Y37480662D01*
X27568106Y37531364D01*
X27462779Y37515745D01*
X27150721Y37297239D01*
X27100019Y37203606D01*
X27115639Y37098278D01*
X27224891Y36942249D01*
X27318525Y36891548D01*
X27423852Y36907167D01*
X27501867Y36961793D01*
X27306750Y37406492D01*
X28344569Y36505481D02*
X27915489Y36205037D01*
X27810162Y36189417D01*
X27716528Y36240119D01*
X27607275Y36396148D01*
X27591656Y36501475D01*
X28305562Y36478168D02*
X28289943Y36583496D01*
X28153377Y36778532D01*
X28059743Y36829233D01*
X27954416Y36813614D01*
X27876401Y36758988D01*
X27825700Y36665354D01*
X27841319Y36560027D01*
X27977885Y36364990D01*
X27993504Y36259663D01*
X28617701Y36115409D02*
X28071599Y35733025D01*
X28227628Y35842277D02*
X28176927Y35748644D01*
X28165233Y35682323D01*
X28180852Y35576996D01*
X28235478Y35498981D01*
D12*
X19892000Y7434000D02*
X29892000Y7434000D01*
X19892000Y7434000D02*
X16342000Y10434000D01*
X29892000Y7434000D02*
X33442000Y10434000D01*
X16342000Y27334000D02*
X33442000Y27334000D01*
X26627714Y28805428D02*
X26484857Y28757809D01*
X26437238Y28710190D01*
X26389619Y28614952D01*
X26389619Y28472095D01*
X26437238Y28376857D01*
X26484857Y28329238D01*
X26580095Y28281619D01*
X26961047Y28281619D01*
X26961047Y29281619D01*
X26627714Y29281619D01*
X26532476Y29234000D01*
X26484857Y29186380D01*
X26437238Y29091142D01*
X26437238Y28995904D01*
X26484857Y28900666D01*
X26532476Y28853047D01*
X26627714Y28805428D01*
X26961047Y28805428D01*
X26103904Y29281619D02*
X25532476Y29281619D01*
X25818190Y28281619D02*
X25818190Y29281619D01*
X24675333Y28281619D02*
X25246761Y28281619D01*
X24961047Y28281619D02*
X24961047Y29281619D01*
X25056285Y29138761D01*
X25151523Y29043523D01*
X25246761Y28995904D01*
M02*
