<?xml version="1.0" encoding="UTF-8" standalone="no"?>
<!-- Created with Inkscape (http://www.inkscape.org/) -->

<svg
   xmlns:dc="http://purl.org/dc/elements/1.1/"
   xmlns:cc="http://creativecommons.org/ns#"
   xmlns:rdf="http://www.w3.org/1999/02/22-rdf-syntax-ns#"
   xmlns:svg="http://www.w3.org/2000/svg"
   xmlns="http://www.w3.org/2000/svg"
   xmlns:sodipodi="http://sodipodi.sourceforge.net/DTD/sodipodi-0.dtd"
   xmlns:inkscape="http://www.inkscape.org/namespaces/inkscape"
   width="210mm"
   height="297mm"
   viewBox="0 0 210 297"
   version="1.1"
   id="svg8"
   inkscape:version="0.92.2 (5c3e80d, 2017-08-06)"
   sodipodi:docname="Pricklypear.svg"
   inkscape:export-filename="C:\Users\Terri\Pictures\Pricklypear.png"
   inkscape:export-xdpi="96"
   inkscape:export-ydpi="96">
  <defs
     id="defs2" />
  <sodipodi:namedview
     id="base"
     pagecolor="#ffffff"
     bordercolor="#666666"
     borderopacity="1.0"
     inkscape:pageopacity="0.0"
     inkscape:pageshadow="2"
     inkscape:zoom="5.6"
     inkscape:cx="267.02094"
     inkscape:cy="755.2878"
     inkscape:document-units="mm"
     inkscape:current-layer="layer1"
     showgrid="false"
     inkscape:window-width="2736"
     inkscape:window-height="1699"
     inkscape:window-x="-13"
     inkscape:window-y="-13"
     inkscape:window-maximized="1" />
  <metadata
     id="metadata5">
    <rdf:RDF>
      <cc:Work
         rdf:about="">
        <dc:format>image/svg+xml</dc:format>
        <dc:type
           rdf:resource="http://purl.org/dc/dcmitype/StillImage" />
        <dc:title></dc:title>
      </cc:Work>
    </rdf:RDF>
  </metadata>
  <g
     inkscape:label="Layer 1"
     inkscape:groupmode="layer"
     id="layer1">
    <path
       style="fill:#008000;stroke:#000000;stroke-width:0.66500002;stroke-linecap:butt;stroke-linejoin:miter;stroke-miterlimit:4;stroke-dasharray:none;stroke-opacity:1"
       d="m 48.502704,84.721178 c -13.096206,0.534538 -8.422343,-14.020447 -2.004521,-14.83346 11.700515,-1.482229 8.285356,11.225319 8.285356,11.225319 3.355134,-1.677567 9.960963,1.678037 6.817718,10.117485 4.507978,-0.03857 6.111445,0.573297 6.74621,5.050061 1.342594,-6.570734 7.315919,-11.539444 11.492588,-3.942226 4.176669,7.59722 -6.013562,9.087163 -6.013562,9.087163 0.555952,6.74742 -1.428106,10.10815 -5.144939,11.15851 L 54.583086,112.31676 C 50.393524,108.86514 49.347131,99.457714 52.819642,96.711052 49.50995,93.638818 44.303487,91.611799 48.502704,84.721178 Z"
       id="path817"
       inkscape:connector-curvature="0"
       sodipodi:nodetypes="csccczccccc" />
    <path
       style="fill:#28220b;stroke:#000000;stroke-width:0.26458332px;stroke-linecap:butt;stroke-linejoin:miter;stroke-opacity:1"
       d="m 50.313489,110.77996 c 0.427703,0.0561 -0.263158,-0.96951 0.46772,6.5481 h 23.653352 l 1.269532,-6.28084 z"
       id="path819"
       inkscape:connector-curvature="0"
       sodipodi:nodetypes="ccccc" />
    <path
       style="fill:#28220b;stroke:#000000;stroke-width:0.26458332px;stroke-linecap:butt;stroke-linejoin:miter;stroke-opacity:1"
       d="m 52.251193,117.19443 3.674955,13.02939 13.29666,0.0668 3.340866,-13.02939 z"
       id="path821"
       inkscape:connector-curvature="0"
       sodipodi:nodetypes="ccccc" />
    <path
       style="fill:none;stroke:#000000;stroke-width:0.565;stroke-linecap:butt;stroke-linejoin:miter;stroke-miterlimit:4;stroke-dasharray:none;stroke-opacity:1"
       d="m 43.698568,76.769909 c 1.763339,-2.58938 2.538741,0.195326 2.539061,0.20045"
       id="path825"
       inkscape:connector-curvature="0"
       sodipodi:nodetypes="cc" />
    <path
       style="fill:none;stroke:#000000;stroke-width:0.465;stroke-linecap:butt;stroke-linejoin:miter;stroke-miterlimit:4;stroke-dasharray:none;stroke-opacity:1"
       d="m 44.299924,79.910325 c 2.249379,4.547021 5.541214,1.26858 5.61266,1.135895"
       id="path827"
       inkscape:connector-curvature="0"
       sodipodi:nodetypes="cc" />
    <path
       sodipodi:nodetypes="cc"
       inkscape:connector-curvature="0"
       id="path829"
       d="m 48.643054,76.636274 c 1.763339,-2.58938 2.538741,0.195326 2.539061,0.20045"
       style="fill:none;stroke:#000000;stroke-width:0.565;stroke-linecap:butt;stroke-linejoin:miter;stroke-miterlimit:4;stroke-dasharray:none;stroke-opacity:1" />
    <path
       style="fill:#fcf39a;fill-opacity:1;stroke:#000000;stroke-width:0.10105491px;stroke-linecap:butt;stroke-linejoin:miter;stroke-opacity:1"
       d="m 54.738737,85.610654 0.66475,1.704744 0.435526,-1.932044 z"
       id="path831"
       inkscape:connector-curvature="0" />
    <path
       inkscape:connector-curvature="0"
       id="path833"
       d="m 37.115597,101.01318 0.66475,1.70475 0.435526,-1.93205 z"
       style="fill:#fcf39a;fill-opacity:1;stroke:#000000;stroke-width:0.10105491px;stroke-linecap:butt;stroke-linejoin:miter;stroke-opacity:1" />
    <path
       style="fill:#ff3334;fill-opacity:1;stroke:#000000;stroke-width:0.26458332px;stroke-linecap:butt;stroke-linejoin:miter;stroke-opacity:1"
       d="m 74.981027,91.38095 c 0,0 -1.795388,-4.488467 0.755952,-4.535714 2.55134,-0.04725 1.842634,3.921503 1.842634,3.921503 z"
       id="path835"
       inkscape:connector-curvature="0"
       sodipodi:nodetypes="cccc" />
    <path
       sodipodi:nodetypes="cccc"
       inkscape:connector-curvature="0"
       id="path4526"
       d="m 45.309896,72.056917 c 0,0 -1.795388,-4.488467 0.755952,-4.535714 2.55134,-0.04725 1.842634,3.921503 1.842634,3.921503 z"
       style="fill:#ff3334;fill-opacity:1;stroke:#000000;stroke-width:0.26458332px;stroke-linecap:butt;stroke-linejoin:miter;stroke-opacity:1" />
    <path
       style="fill:#fcf39a;fill-opacity:1;stroke:#000000;stroke-width:0.10105491px;stroke-linecap:butt;stroke-linejoin:miter;stroke-opacity:1"
       d="m 52.140151,90.288109 0.66475,1.704744 0.435526,-1.932044 z"
       id="path4528"
       inkscape:connector-curvature="0" />
    <path
       inkscape:connector-curvature="0"
       id="path4530"
       d="m 49.825047,86.177617 0.66475,1.704744 0.435526,-1.932044 z"
       style="fill:#fcf39a;fill-opacity:1;stroke:#000000;stroke-width:0.10105491px;stroke-linecap:butt;stroke-linejoin:miter;stroke-opacity:1" />
    <path
       style="fill:#fcf39a;fill-opacity:1;stroke:#000000;stroke-width:0.10105491px;stroke-linecap:butt;stroke-linejoin:miter;stroke-opacity:1"
       d="m 53.132338,105.26542 0.66475,1.70474 0.435526,-1.93204 z"
       id="path4532"
       inkscape:connector-curvature="0" />
    <path
       inkscape:connector-curvature="0"
       id="path4534"
       d="m 58.329511,95.485281 0.66475,1.704748 0.435526,-1.932048 z"
       style="fill:#fcf39a;fill-opacity:1;stroke:#000000;stroke-width:0.10105491px;stroke-linecap:butt;stroke-linejoin:miter;stroke-opacity:1" />
    <path
       style="fill:#fcf39a;fill-opacity:1;stroke:#000000;stroke-width:0.10105491px;stroke-linecap:butt;stroke-linejoin:miter;stroke-opacity:1"
       d="m 53.699302,99.31229 0.66475,1.70475 0.435526,-1.93205 z"
       id="path4536"
       inkscape:connector-curvature="0" />
    <path
       inkscape:connector-curvature="0"
       id="path4538"
       d="m 57.38457,89.248674 0.66475,1.704748 0.435526,-1.932048 z"
       style="fill:#fcf39a;fill-opacity:1;stroke:#000000;stroke-width:0.10105491px;stroke-linecap:butt;stroke-linejoin:miter;stroke-opacity:1" />
    <path
       style="fill:#fcf39a;fill-opacity:1;stroke:#000000;stroke-width:0.10105491px;stroke-linecap:butt;stroke-linejoin:miter;stroke-opacity:1"
       d="m 63.290448,98.414597 0.66475,1.704743 0.435526,-1.932043 z"
       id="path4540"
       inkscape:connector-curvature="0" />
    <path
       inkscape:connector-curvature="0"
       id="path4542"
       d="m 59.416192,102.85582 0.66475,1.70474 0.435526,-1.93204 z"
       style="fill:#fcf39a;fill-opacity:1;stroke:#000000;stroke-width:0.10105491px;stroke-linecap:butt;stroke-linejoin:miter;stroke-opacity:1" />
    <path
       style="fill:#fcf39a;fill-opacity:1;stroke:#000000;stroke-width:0.10105491px;stroke-linecap:butt;stroke-linejoin:miter;stroke-opacity:1"
       d="m 41.604064,78.712585 0.66475,1.70475 0.435526,-1.93205 z"
       id="path4544"
       inkscape:connector-curvature="0" />
    <path
       inkscape:connector-curvature="0"
       id="path4546"
       d="m 67.778916,101.01318 0.66475,1.70475 0.435526,-1.93205 z"
       style="fill:#fcf39a;fill-opacity:1;stroke:#000000;stroke-width:0.10105491px;stroke-linecap:butt;stroke-linejoin:miter;stroke-opacity:1" />
    <path
       style="fill:#fcf39a;fill-opacity:1;stroke:#000000;stroke-width:0.10105491px;stroke-linecap:butt;stroke-linejoin:miter;stroke-opacity:1"
       d="m 66.455999,105.97412 0.66475,1.70475 0.435526,-1.93205 z"
       id="path4548"
       inkscape:connector-curvature="0" />
    <path
       inkscape:connector-curvature="0"
       id="path4550"
       d="m 51.053469,78.287361 0.66475,1.70475 0.435526,-1.93205 z"
       style="fill:#fcf39a;fill-opacity:1;stroke:#000000;stroke-width:0.10105491px;stroke-linecap:butt;stroke-linejoin:miter;stroke-opacity:1" />
    <path
       style="fill:#fcf39a;fill-opacity:1;stroke:#000000;stroke-width:0.10105491px;stroke-linecap:butt;stroke-linejoin:miter;stroke-opacity:1"
       d="m 75.905404,94.82382 0.66475,1.70475 0.435526,-1.93205 z"
       id="path4552"
       inkscape:connector-curvature="0" />
    <path
       inkscape:connector-curvature="0"
       id="path4554"
       d="m 71.416936,93.453656 0.66475,1.70475 0.435526,-1.93205 z"
       style="fill:#fcf39a;fill-opacity:1;stroke:#000000;stroke-width:0.10105491px;stroke-linecap:butt;stroke-linejoin:miter;stroke-opacity:1" />
    <path
       style="fill:#fcf39a;fill-opacity:1;stroke:#000000;stroke-width:0.10105491px;stroke-linecap:butt;stroke-linejoin:miter;stroke-opacity:1"
       d="m 49.210835,71.767272 0.66475,1.70475 0.435526,-1.93205 z"
       id="path4556"
       inkscape:connector-curvature="0" />
    <path
       style="fill:none;stroke:#000000;stroke-width:0.26458332px;stroke-linecap:butt;stroke-linejoin:miter;stroke-opacity:1"
       d="m 62.744048,71.773435 c 0.456721,0.0315 0.913939,0.05648 1.370163,0.0945 0.299844,0.02498 0.599337,0.05558 0.897694,0.09449 0.06439,0.0084 0.125598,0.03316 0.188987,0.04725 0.07839,0.01741 0.15749,0.0315 0.236236,0.04725 0.07874,0.01574 0.15626,0.03998 0.236235,0.04725 0.0941,0.0085 0.189315,-0.0079 0.28348,0 0.190934,0.0159 0.376031,0.07858 0.566965,0.0945 0.09417,0.0079 0.18899,0 0.283483,0 0.188989,0 0.377976,0 0.566965,0 0.110241,0 0.220811,-0.0085 0.330729,0 0.09552,0.0074 0.187965,0.0399 0.283483,0.04725 0.109918,0.0084 0.220485,0 0.330729,0 0.314978,0 0.629959,0 0.944938,0 0.803201,0 1.606399,0 2.4096,0 0.251984,0 0.504187,-0.01048 0.755952,0 0.253724,0.01056 0.502962,0.07249 0.755951,0.09449 0.487397,0.04238 0.977562,0.04883 1.464659,0.09449 0.252836,0.02371 0.503188,0.07003 0.755952,0.0945 0.235659,0.02281 0.473046,0.02445 0.708705,0.04725 0.252764,0.02445 0.503968,0.063 0.755952,0.09449 0.125994,0.01574 0.251251,0.03933 0.377978,0.04725 0.125746,0.0079 0.252262,-0.0084 0.377976,0 0.111114,0.0074 0.219612,0.03984 0.330729,0.04725 1.004626,0 -0.202205,-0.01781 0.708705,0.04725 0.109964,0.0079 0.220983,-0.01045 0.330729,0 0.221721,0.02111 0.439738,0.07338 0.661459,0.0945 0.109746,0.01045 0.22081,-0.0085 0.330729,0 0.09551,0.0074 0.188986,0.0315 0.283482,0.04725 0.204737,0.01574 0.409186,0.03586 0.614212,0.04725 0.07862,0.0044 0.157813,-0.0071 0.236233,0 0.09541,0.0087 0.188989,0.0315 0.283483,0.04725 0.15749,0.01574 0.314597,0.03597 0.472471,0.04725 0.06284,0.0045 0.126479,-0.0078 0.188987,0 0.06443,0.008 0.1256,0.03316 0.188989,0.04725 0.241414,0.05365 0.527937,0.09778 0.755952,0.188989 0.05272,0.02109 0.09095,0.0691 0.14174,0.09449 0.102552,0.05128 0.228179,0.04322 0.330729,0.0945 0.03984,0.01992 0.06028,0.06598 0.0945,0.09449 0.336936,0.280779 0.06977,0.02252 0.283482,0.236236 0.0315,0.0315 0.07239,0.05582 0.09449,0.09449 0.04208,0.07364 0.06551,0.156531 0.09449,0.236236 0.09393,0.258305 0.09589,0.267528 0.141743,0.519716 0.06537,0.35954 0.04725,0.225298 0.04725,0.614212 0,0.04725 0,0.09449 0,0.14174 0,0.04725 0.0067,0.09497 0,0.141742 -0.0092,0.06428 -0.03919,0.124556 -0.04725,0.188987 -0.0078,0.06251 0.0096,0.126725 0,0.188989 -0.02209,0.14351 -0.07396,0.281485 -0.0945,0.425223 -0.01114,0.07795 0.01709,0.159366 0,0.236235 -0.01527,0.06876 -0.07222,0.122172 -0.09449,0.18899 -0.05079,0.152365 -0.0437,0.3201 -0.09449,0.472469 -0.02228,0.06682 -0.06589,0.124626 -0.0945,0.188989 -0.03444,0.0775 -0.063,0.157488 -0.09449,0.236233 -0.125992,0.314981 -0.251984,0.629963 -0.377976,0.944941 -0.0315,0.07874 -0.06005,0.158734 -0.09449,0.236236 -0.02861,0.06436 -0.063,0.125992 -0.0945,0.188986 -0.0315,0.07875 -0.06005,0.158735 -0.09449,0.236236 -0.0286,0.06436 -0.0674,0.123976 -0.09449,0.18899 -0.05175,0.124208 -0.08999,0.253767 -0.141742,0.377975 -0.02709,0.06501 -0.06976,0.123042 -0.09449,0.188987 -0.0456,0.121602 -0.04889,0.256376 -0.09449,0.377978 -0.02474,0.06595 -0.07042,0.122796 -0.09449,0.188987 -0.03918,0.107752 -0.06155,0.220911 -0.0945,0.330729 -0.0715,0.238339 -0.167881,0.469474 -0.236233,0.708705 -0.09413,0.329467 -0.0016,0.0548 -0.0945,0.472472 -0.05744,0.258463 -0.02848,0.02864 -0.14174,0.283482 -0.04045,0.09102 -0.063,0.188987 -0.09449,0.28348 -0.0315,0.0945 -0.063,0.188989 -0.0945,0.283483 -0.01574,0.04725 -0.02162,0.09904 -0.04725,0.141742 -0.02291,0.0382 -0.07158,0.0563 -0.09449,0.09449 -0.02561,0.04271 -0.02498,0.0972 -0.04725,0.14174 -0.0254,0.05079 -0.0691,0.09095 -0.0945,0.141742 -0.03793,0.07586 -0.06108,0.158282 -0.09449,0.236236 -0.01386,0.03237 -0.02612,0.06632 -0.04725,0.09449 -0.02673,0.03564 -0.063,0.063 -0.09449,0.09449 -0.01574,0.01574 -0.0402,0.02611 -0.04725,0.04725 -0.0099,0.02988 0.0117,0.06525 0,0.0945 -0.02109,0.05272 -0.06043,0.09631 -0.0945,0.14174 -0.01336,0.01781 -0.0402,0.02612 -0.04725,0.04725 -0.04319,0.129579 0.06515,0.07659 -0.04725,0.188989"
       id="path4564"
       inkscape:connector-curvature="0" />
    <path
       style="fill:none;stroke:#000000;stroke-width:0.26458332px;stroke-linecap:butt;stroke-linejoin:miter;stroke-opacity:1"
       d="m 87.076263,70.167036 c -0.01574,0.50397 -0.04725,1.007692 -0.04725,1.511906 0,0.252476 0.03464,0.50379 0.04725,0.755952 0.0055,0.110106 0,0.220487 0,0.330729 0,0.535466 0,1.070933 0,1.606399"
       id="path4566"
       inkscape:connector-curvature="0" />
    <path
       style="fill:none;stroke:#000000;stroke-width:0.26458332px;stroke-linecap:butt;stroke-linejoin:miter;stroke-opacity:1"
       d="m 89.013391,72.954612 c 0.456721,-0.09449 0.917697,-0.170365 1.370164,-0.283483 0.130318,-0.03258 0.141605,-0.09422 0.188989,-0.188989 0.09449,-0.188986 0.20025,-0.372753 0.283482,-0.566962 0.01241,-0.02895 0.0062,-0.06361 0,-0.0945 -0.109138,-0.545682 0.02331,-0.283684 -0.188989,-0.425223 -0.01852,-0.01236 -0.02733,-0.03728 -0.04725,-0.04725 -0.01408,-0.007 -0.03316,0.007 -0.04725,0 -0.01992,-0.0099 -0.02611,-0.0402 -0.04725,-0.04725 -0.107362,-0.03579 -0.237074,0.05703 -0.330729,0.09449 -0.0061,0.0024 -0.281927,0.09356 -0.283482,0.09449 -0.0382,0.02291 -0.05971,0.06667 -0.09449,0.0945 -0.03164,0.02532 -0.152043,0.08632 -0.188989,0.14174 -0.01953,0.0293 -0.0315,0.063 -0.04725,0.09449 -0.063,0.125994 -0.130698,0.24974 -0.188989,0.377978 -0.02061,0.04534 -0.03356,0.09385 -0.04725,0.14174 -0.01783,0.06244 -0.01646,0.131816 -0.04725,0.18899 -0.08076,0.149989 -0.320437,0.258926 -0.283483,0.425222 0.04596,0.206835 0.322649,0.275399 0.472472,0.425222 0.01114,0.01114 0,0.0315 0,0.04725 0.01574,0.01574 0.02872,0.03489 0.04725,0.04725 0.0293,0.01953 0.06632,0.02611 0.09449,0.04725 0.03564,0.02673 0.05886,0.06777 0.09449,0.09449 0.02817,0.02114 0.063,0.0315 0.0945,0.04725 0.0315,0.01574 0.063,0.0315 0.09449,0.04725 0.0315,0.01574 0.06299,0.0315 0.09449,0.04725 0.0315,0.01574 0.06012,0.03961 0.0945,0.04725 0.902663,0.128953 0.06128,-0.02682 0.425222,0.0945 0.02988,0.0099 0.063,0 0.09449,0 0.09449,0 0.189716,0.01172 0.283482,0 0.03494,-0.0044 0.0618,-0.03417 0.09449,-0.04725 0.09248,-0.03699 0.194392,-0.04995 0.283483,-0.0945 0.01992,-0.0099 0.02733,-0.03729 0.04725,-0.04725 0.01408,-0.007 0.03316,0.007 0.04725,0 0.05079,-0.0254 0.09095,-0.0691 0.141743,-0.09449 0.04454,-0.02228 0.09449,-0.0315 0.14174,-0.04725 0.0945,-0.0315 0.191931,-0.05526 0.283482,-0.0945 0.02048,-0.0088 0.02872,-0.03489 0.04725,-0.04725 0.0293,-0.01953 0.06519,-0.02771 0.0945,-0.04725 0.104277,-0.06952 -0.02418,-0.04725 0.14174,-0.04725"
       id="path4576"
       inkscape:connector-curvature="0" />
    <path
       style="fill:none;stroke:#000000;stroke-width:0.26458332px;stroke-linecap:butt;stroke-linejoin:miter;stroke-opacity:1"
       d="m 94.541294,70.025296 c 0.431503,0.934924 0.489971,0.942761 0.708705,1.653646 0.0191,0.06206 0.04475,0.1241 0.04725,0.188989 0.01331,0.346221 0.154951,0.729533 0,1.039434 -0.07043,0.140862 -0.250608,-0.190852 -0.377975,-0.283482 -0.04725,-0.0315 -0.09449,-0.063 -0.14174,-0.09449 -0.0315,-0.0315 -0.05886,-0.06777 -0.0945,-0.0945 -0.02817,-0.02114 -0.06519,-0.02771 -0.09449,-0.04725 -0.05559,-0.03706 -0.08614,-0.104677 -0.141739,-0.14174 -0.0131,-0.0087 -0.0315,0 -0.04725,0 -0.0315,0 -0.06394,0.0076 -0.0945,0 -0.154107,-0.03853 -0.036,-0.0873 -0.236233,-0.04725 -0.03453,0.0069 -0.06033,0.03871 -0.0945,0.04725 -0.04584,0.01146 -0.09692,-0.01495 -0.14174,0 -0.03341,0.01114 -0.0618,0.03417 -0.09449,0.04725 -0.04624,0.01849 -0.0955,0.02875 -0.141743,0.04725 -0.14573,0.05829 -0.272756,0.178261 -0.377976,0.283483 -0.01114,0.01114 0.0038,0.03197 0,0.04725 -0.01209,0.04832 -0.02875,0.0955 -0.04725,0.14174 -0.01307,0.0327 -0.04034,0.05996 -0.04725,0.0945 -0.0011,0.0048 -0.0071,0.255104 0,0.283483 0.01206,0.04832 0.03356,0.09385 0.04725,0.14174 0.01783,0.06244 0.0182,0.130908 0.04725,0.188989 0.01992,0.03984 0.06777,0.05886 0.09449,0.09449 0.112705,0.15027 -0.0415,0.09909 0.18899,0.283483 0.02461,0.01969 0.06461,-0.01 0.09449,0 0.02114,0.007 0.0315,0.0315 0.04725,0.04725 0.06565,0.06565 0.0637,0.07779 0.188989,0.09449 0.383781,0.05117 0.434689,0.04725 0.708705,0.04725 0.04725,0 0.09658,0.01389 0.14174,0 0.176186,-0.05421 0.349559,-0.118088 0.519718,-0.188986 0.02056,-0.0086 0.02733,-0.03729 0.04725,-0.04725 0.04454,-0.02228 0.0955,-0.02875 0.141742,-0.04725 0.0327,-0.01307 0.063,-0.0315 0.09449,-0.04725 0.0315,-0.01574 0.06519,-0.02771 0.09449,-0.04725 0.01852,-0.01236 0.0315,-0.0315 0.04725,-0.04725 0.01574,-0.01574 0.0315,-0.0315 0.04725,-0.04725 0.01574,-0.01574 0.03729,-0.02733 0.04725,-0.04725 0.007,-0.01408 -0.01574,-0.04725 0,-0.04725 0.01574,0 0,0.0315 0,0.04725"
       id="path4578"
       inkscape:connector-curvature="0" />
    <path
       style="fill:none;stroke:#000000;stroke-width:0.26458332px;stroke-linecap:butt;stroke-linejoin:miter;stroke-opacity:1"
       d="m 98.55729,71.726189 c -0.409474,0.188989 -0.841708,0.334936 -1.228423,0.566965 -0.09738,0.05843 -0.132641,0.184877 -0.188987,0.283482 -0.0078,0.01368 -0.01259,0.0378 0,0.04725 0.874443,0.655833 1.786345,1.261816 2.645834,1.937128 0.04772,0.0375 -0.01445,0.203428 -0.04725,0.236233 -0.134099,0.134099 -0.277138,0.259509 -0.425225,0.377979 -0.0123,0.0098 -0.03231,-0.005 -0.04725,0 -0.03341,0.01114 -0.06033,0.03871 -0.09449,0.04725 -0.03056,0.0076 -0.06461,-0.01 -0.09449,0 -0.02114,0.007 -0.02657,0.03898 -0.04725,0.04725 -0.06029,0.02413 -0.127386,0.02671 -0.188989,0.04725 -0.03341,0.01114 -0.05996,0.04034 -0.09449,0.04725 -0.221674,0.04434 -0.400056,0.04725 -0.614212,0.04725 -0.02722,0 -0.219014,0.0086 -0.236236,0 -0.01992,-0.0099 -0.0315,-0.0315 -0.04725,-0.04725"
       id="path4580"
       inkscape:connector-curvature="0" />
    <path
       style="fill:none;stroke:#000000;stroke-width:0.26458332px;stroke-linecap:butt;stroke-linejoin:miter;stroke-opacity:1"
       d="m 78.997023,121.52455 c 2.202238,-0.86755 1.292638,-0.58204 4.11049,-1.27567 0.170976,-0.0421 0.350319,-0.0464 0.519718,-0.0945 0.886722,-0.25146 1.76389,-0.53547 2.645834,-0.8032"
       id="path4582"
       inkscape:connector-curvature="0" />
    <path
       style="fill:none;stroke:#000000;stroke-width:0.26458332px;stroke-linecap:butt;stroke-linejoin:miter;stroke-opacity:1"
       d="m 80.508926,118.97321 c -0.164488,0.18016 -1.220716,1.27574 -1.464656,1.70089 -0.424183,0.7393 -0.812861,1.49921 -1.181177,2.26786 -0.0136,0.0284 0.06319,-0.003 0.0945,0 0.252391,0.0281 0.503267,0.0692 0.755952,0.0945 0.125367,0.0125 0.252608,-0.0126 0.377975,0 0.252686,0.0253 0.502963,0.0725 0.755952,0.0945 0.109831,0.01 0.220612,-0.005 0.330729,0 0.2208,0.0105 0.440717,0.0356 0.661459,0.0473 0.157273,0.008 0.314981,0 0.472471,0 0.09449,0 0.189937,-0.0134 0.283483,0 0.02204,0.003 0.02733,0.0373 0.04725,0.0472 0.01408,0.007 0.0315,0 0.04725,0 0.01574,0 0.03611,0.0111 0.04725,0 0.01114,-0.0111 0.01114,-0.0361 0,-0.0472 -0.01114,-0.0111 -0.03611,0.0111 -0.04725,0 -0.10858,-0.10858 0.01225,-0.0945 -0.09449,-0.0945"
       id="path4584"
       inkscape:connector-curvature="0" />
    <path
       style="fill:none;stroke:#000000;stroke-width:0.26458332px;stroke-linecap:butt;stroke-linejoin:miter;stroke-opacity:1"
       d="m 88.588169,115.38244 c 0.15749,0.45672 0.374589,0.89707 0.472469,1.37016 0.09275,0.44831 0.05648,0.91394 0.0945,1.37017 0.0092,0.11097 0.03617,0.21992 0.04725,0.33073 0.0047,0.047 0,0.0945 0,0.14174 0.01574,0.11024 0.02894,0.22088 0.04725,0.33073 0.0132,0.0792 -0.03284,0.24209 0.04725,0.23623 0.640723,-0.0469 1.264915,-0.22918 1.889882,-0.37797 0.07854,-0.0187 0.155879,-0.21727 0.188986,-0.28349 0.143552,-0.2871 0.246319,-0.46556 0.330729,-0.8032 0.0054,-0.0216 -0.0315,-0.0315 -0.04725,-0.0472 -0.04725,-0.0473 -0.08445,-0.10737 -0.14174,-0.14174 -0.03375,-0.0203 -0.101246,0.0101 -0.141743,0 -0.179496,-0.0449 -0.124518,-0.065 -0.330729,-0.0945 -0.04677,-0.007 -0.09449,0 -0.14174,0 -0.063,0 -0.125992,0 -0.188989,0 -0.39579,0 -0.481455,-0.007 -1.039434,0.0945 -0.0693,0.0126 -0.132641,0.0522 -0.188987,0.0945 -0.196808,0.1476 -0.381061,0.31135 -0.566965,0.47247 -0.05049,0.0438 -0.09449,0.0945 -0.141743,0.14174 -0.01574,0.0157 -0.03489,0.0287 -0.04725,0.0473 -0.01953,0.0293 -0.02913,0.0643 -0.04725,0.0945 -0.04043,0.0674 -0.114739,0.15524 -0.14174,0.23624 -0.005,0.0149 0.007,0.0332 0,0.0472 -0.0099,0.0199 -0.03489,0.0287 -0.04725,0.0472 -0.01953,0.0293 -0.02236,0.0696 -0.04725,0.0945 -0.06299,0.063 -0.14174,0.0157 -0.14174,0.14174 0,0.0157 0.0315,0 0.04725,0"
       id="path4586"
       inkscape:connector-curvature="0" />
    <path
       style="fill:none;stroke:#000000;stroke-width:0.26458332px;stroke-linecap:butt;stroke-linejoin:miter;stroke-opacity:1"
       d="m 93.974329,117.03608 c -1.303933,0.81496 -1.229141,0.29445 -1.039434,1.55916 0.0052,0.0348 0.02058,0.11751 0.04725,0.0945 0.353984,-0.30571 0.559036,-0.81572 0.992188,-0.99219 1.158944,-0.47216 0.209108,0.37097 0.283482,0.51972 0.0099,0.0199 0.0315,0.0315 0.04725,0.0473 0.0315,0.0315 0.06777,0.0589 0.0945,0.0945 0.02111,0.0282 0.02771,0.0652 0.04725,0.0945 0.01236,0.0185 0.0315,0.0315 0.04725,0.0472 0.0315,0.0315 0.05886,0.0678 0.09449,0.0945 0.02817,0.0211 0.06632,0.0261 0.09449,0.0472 0.187957,0.14097 -0.01064,0.10365 0.330729,0.18899 0.04584,0.0115 0.09478,-0.005 0.141743,0 0.09521,0.0106 0.188423,0.0354 0.283482,0.0473 0.05878,0.007 0.128638,0 0.188987,0 0.01146,0 0.140221,0.002 0.141742,0 0.01114,-0.0111 0,-0.0315 0,-0.0473 0,-0.0157 0,-0.0315 0,-0.0472"
       id="path4588"
       inkscape:connector-curvature="0" />
    <path
       style="fill:none;stroke:#000000;stroke-width:0.26458332px;stroke-linecap:butt;stroke-linejoin:miter;stroke-opacity:1"
       d="m 96.620162,114.01227 c 0.110244,0.48822 0.235889,0.97322 0.330729,1.46466 0.0785,0.40679 0.125032,0.8191 0.188989,1.22842 0.01479,0.0947 0.0249,0.19034 0.04725,0.28349 0.49748,2.07284 1.025652,2.5848 0.472469,2.03162"
       id="path4590"
       inkscape:connector-curvature="0" />
    <path
       style="fill:none;stroke:#000000;stroke-width:0.26458332px;stroke-linecap:butt;stroke-linejoin:miter;stroke-opacity:1"
       d="m 95.675221,117.13058 c 2.412463,-1.20623 0.374486,-0.28463 2.126118,-0.89769 0.0536,-0.0188 0.08714,-0.0789 0.14174,-0.0945 0.06057,-0.0173 0.125992,0 0.188989,0 0.251984,-0.0945 0.503968,-0.18899 0.755952,-0.28348"
       id="path4592"
       inkscape:connector-curvature="0" />
    <path
       style="fill:none;stroke:#000000;stroke-width:0.26458332px;stroke-linecap:butt;stroke-linejoin:miter;stroke-opacity:1"
       d="m 99.83296,113.44531 c 0.04725,0.53547 0.08955,1.07139 0.14174,1.6064 0.01082,0.11084 0.03031,0.22066 0.04725,0.33073 0.12933,0.84062 0.23585,1.74643 0.42522,2.59858 0.0141,0.0634 0.0332,0.12561 0.0473,0.18899 0.0174,0.0784 0.0384,0.15643 0.0472,0.23624 0.0346,0.31105 -0.0629,0.0869 0.0472,0.47247 0.006,0.0214 0.0373,0.0273 0.0473,0.0473 0.007,0.0141 0,0.0315 0,0.0472 0,0.0315 0.0141,0.0663 0,0.0945 -0.007,0.0141 -0.0361,0.0111 -0.0473,0 -0.0249,-0.0249 -0.0315,-0.063 -0.0472,-0.0945"
       id="path4594"
       inkscape:connector-curvature="0" />
    <path
       style="fill:none;stroke:#000000;stroke-width:0.26458332px;stroke-linecap:butt;stroke-linejoin:miter;stroke-opacity:1"
       d="m 98.74628,117.46131 c 2.09204,-0.38922 1.53653,-0.10681 2.92932,-0.8032 0.0199,-0.01 0.0273,-0.0373 0.0472,-0.0472 0.0282,-0.0141 0.0722,0.0223 0.0945,0 0.063,-0.063 -0.0787,-0.0473 0.0472,-0.0473"
       id="path4596"
       inkscape:connector-curvature="0" />
    <path
       style="fill:none;stroke:#000000;stroke-width:0.26458332px;stroke-linecap:butt;stroke-linejoin:miter;stroke-opacity:1"
       d="m 102.14806,118.21726 c 0.36223,-0.29923 0.78801,-0.53501 1.08669,-0.89769 0.1583,-0.19222 0.38349,-0.90951 0.23623,-0.70871 -0.31665,0.4318 -0.54816,0.92391 -0.75595,1.41741 -0.13,0.30875 0.0115,0.3055 0.0473,0.51972 0.008,0.0466 -0.009,0.0954 0,0.14174 0.002,0.0119 0.13473,0.27648 0.14174,0.28348 0.0249,0.0249 0.0643,0.0291 0.0945,0.0473 0.0487,0.0292 0.091,0.0691 0.14174,0.0945 0.0141,0.007 0.0332,-0.007 0.0473,0 0.0199,0.01 0.0256,0.0419 0.0473,0.0473 0.004,10e-4 0.27263,0.005 0.28348,0 0.0199,-0.01 0.0252,-0.0441 0.0472,-0.0473 0.79904,0 0.0199,0.0423 0.37798,-0.0472 0.0306,-0.008 0.0646,0.01 0.0945,0 0.0211,-0.007 0.0273,-0.0373 0.0472,-0.0473 0.0282,-0.0141 0.0663,0.0141 0.0945,0 0.0199,-0.01 0.0273,-0.0373 0.0472,-0.0473 0.13904,-0.0695 -0.0622,0.10946 0.0945,-0.0472"
       id="path4598"
       inkscape:connector-curvature="0" />
    <path
       style="fill:none;stroke:#000000;stroke-width:0.26458332px;stroke-linecap:butt;stroke-linejoin:miter;stroke-opacity:1"
       d="m 104.32147,118.92601 c 0.51898,-0.52546 0.43607,-1.51073 0.89765,-2.12616 0.0211,-0.0282 0.0663,-0.0261 0.0945,-0.0473 0.0356,-0.0267 0.0515,-0.0829 0.0945,-0.0945 0.54585,-0.14753 1.10243,-0.25199 1.65365,-0.37798"
       id="path4600"
       inkscape:connector-curvature="0" />
    <path
       style="fill:none;stroke:#000000;stroke-width:0.26458332px;stroke-linecap:butt;stroke-linejoin:miter;stroke-opacity:1"
       d="m 107.06177,116.28007 c 1.81561,-1.02869 0.7517,1.49839 1.46464,1.79545 0.27964,0.11651 0.5951,0.12733 0.8977,0.14174 0.0445,0.002 0.0603,-0.066 0.0945,-0.0945 0.0605,-0.0504 0.12849,-0.0913 0.18899,-0.14175 0.15327,-0.12772 0.0478,-0.0481 0.14174,-0.18898 0.12463,-0.18695 0.18543,-0.20952 0.28348,-0.42523 0.13961,-0.30713 0.13485,-0.5345 0.0945,-0.89769 -0.0149,-0.13374 -0.11961,-0.24525 -0.14174,-0.37798 -0.008,-0.0466 0,-0.0945 0,-0.14174 0,-0.0315 0.0175,-0.0683 0,-0.0945 -0.0195,-0.0293 -0.0734,-0.0191 -0.0945,-0.0473 -0.0299,-0.0398 -0.0352,-0.0934 -0.0472,-0.14174 -0.004,-0.0153 0.0111,-0.0584 0,-0.0473 -0.0249,0.0249 -0.0387,0.0603 -0.0472,0.0945 -0.008,0.0306 0,0.063 0,0.0945 0,0.063 -0.0104,0.12685 0,0.18899 0.006,0.0347 0.0387,0.0603 0.0472,0.0945 0.008,0.0306 0,0.063 0,0.0945 0.0157,0.0787 0.0261,0.15876 0.0472,0.23623 0.0262,0.0961 0.0652,0.18828 0.0945,0.28348 0.0337,0.10959 0.0559,0.22276 0.0945,0.33073 0.0403,0.11296 0.10879,0.21541 0.14174,0.33073 0.0306,0.10708 0.0267,0.22128 0.0473,0.33073 0.0267,0.14272 0.0693,0.28224 0.0945,0.42523 0.0221,0.12504 0.0238,0.25317 0.0473,0.37797 0.0781,0.41662 0.13109,0.3061 0.0945,0.70871 -0.006,0.0647 -0.0381,0.1247 -0.0472,0.18898 -0.007,0.0468 0.009,0.0954 0,0.14175 -0.0653,0.32658 -0.22141,0.68289 -0.42522,0.94494 -0.0755,0.0971 -0.15834,0.18828 -0.23623,0.28348 -0.0639,0.078 -0.12153,0.16128 -0.18899,0.23623 -0.18124,0.20138 -0.26365,0.26281 -0.47247,0.42523 -0.0622,0.0483 -0.11966,0.10441 -0.18899,0.14174 -0.13657,0.0735 -0.27807,0.13994 -0.42522,0.18899 -0.30489,0.10162 -0.9075,0.0322 -1.18118,0 -0.0645,-0.008 -0.1247,-0.0381 -0.18899,-0.0473 -0.0468,-0.007 -0.0945,0 -0.14174,0 -0.11024,0 -0.22048,0 -0.33073,0"
       id="path4602"
       inkscape:connector-curvature="0" />
    <path
       style="fill:none;stroke:#000000;stroke-width:0.26458332px;stroke-linecap:butt;stroke-linejoin:miter;stroke-opacity:1"
       d="m 91.706471,121.71354 c 0.533265,0.57369 -0.02349,1.4804 0.283483,2.12612 0.366522,0.77096 0.80935,1.50558 1.27567,2.22061 0.02721,0.0417 0.103195,-0.0157 0.141742,-0.0473 0.06361,-0.052 0.471289,-0.4205 0.519716,-0.61421 0.0076,-0.0306 -0.0052,-0.0634 0,-0.0945 0.01066,-0.064 0.03806,-0.1247 0.04725,-0.18898 0.0067,-0.0468 0,-0.0945 0,-0.14175 0,-0.0472 0.0078,-0.0951 0,-0.14174 -0.01908,-0.11453 -0.07815,-0.22806 -0.188987,-0.28348 -0.113027,-0.0565 -0.25568,-0.0473 -0.377976,-0.0473 -0.04725,0 -0.09486,-0.006 -0.141742,0 -0.07968,0.01 -0.158329,0.0278 -0.236236,0.0473 -0.04832,0.0121 -0.09449,0.0315 -0.14174,0.0472 -0.04725,0.0157 -0.0955,0.0288 -0.14174,0.0472 -0.0327,0.0131 -0.06033,0.0387 -0.0945,0.0473 -0.216231,0.0541 0.04913,-0.0954 -0.236233,0.0473 -0.01992,0.01 -0.02611,0.0402 -0.04725,0.0472 -0.21508,0 -0.0027,-0.0223 -0.14174,0.0472 -0.03716,0.0186 -0.18899,-0.0409 -0.18899,0.0473 0,0.0157 0.03316,0.007 0.04725,0 0.116766,-0.0584 -0.0163,-0.0473 0.09449,-0.0473"
       id="path4604"
       inkscape:connector-curvature="0" />
    <path
       style="fill:none;stroke:#000000;stroke-width:0.26458332px;stroke-linecap:butt;stroke-linejoin:miter;stroke-opacity:1"
       d="m 95.155506,124.73735 c 0.125991,-0.44097 0.348448,-0.86525 0.377975,-1.32292 0.02397,-0.37168 -0.534093,-0.0618 -0.472469,0.0473 0.397643,0.70352 0.871059,1.36163 1.322917,2.03162 0.0088,0.0131 0.0315,0 0.04725,0 0.01574,0 0.03316,0.007 0.04725,0 0.01992,-0.01 0.02872,-0.0349 0.04725,-0.0472 0.0293,-0.0195 0.07875,-0.0157 0.09449,-0.0473 0.02919,-0.0584 -0.0869,-0.0472 -0.09449,-0.0472"
       id="path4606"
       inkscape:connector-curvature="0" />
    <path
       style="fill:none;stroke:#000000;stroke-width:0.26458332px;stroke-linecap:butt;stroke-linejoin:miter;stroke-opacity:1"
       d="m 97.848585,121.99702 c -0.370702,0.6592 0.401495,1.05279 0.47247,1.6064 0.06636,0.51762 0.0885,1.04002 0.141742,1.55915 0.0098,0.0953 0.03771,0.18816 0.04725,0.28349 0.0063,0.0627 0,0.12599 0,0.18898 0,0.0315 -0.01,0.0646 0,0.0945 0.007,0.0211 0.0315,0.0315 0.04725,0.0472 0,0.0315 -0.0076,0.0639 0,0.0945 0.01365,0.0546 0.05348,0.13551 0.09449,0.0945 0.01114,-0.0111 -0.0058,-0.0326 0,-0.0473 0.02617,-0.0654 0.06675,-0.12425 0.0945,-0.18898 0.0196,-0.0458 0.03356,-0.0939 0.04725,-0.14174 0.01783,-0.0624 0.02167,-0.12931 0.04725,-0.18899 0.15553,-0.36291 0.04185,0.11067 0.188989,-0.33073 0.0099,-0.0299 -0.0076,-0.0639 0,-0.0945 0.0085,-0.0342 0.02977,-0.0639 0.04725,-0.0945 0.146362,-0.25614 0.08568,-0.18018 0.236233,-0.33073 0.01574,-0.0157 0.02733,-0.0373 0.04725,-0.0473 0.01723,-0.009 0.216586,-0.004 0.236234,0 0.04884,0.01 0.0972,0.025 0.141742,0.0473 0.176501,0.0883 0.351655,0.18006 0.519715,0.28348 0.0379,0.0233 0.0716,0.0563 0.0945,0.0945 0.0256,0.0427 0.0315,0.0945 0.0472,0.14174 0.0157,0.0473 0.0315,0.0945 0.0472,0.14174 0.0157,0.0473 0.0315,0.0945 0.0473,0.14174 0.0157,0.0472 0.0391,0.0926 0.0472,0.14174 0.0185,0.11119 -0.0217,0.26933 0,0.37798 0.007,0.0345 0.0315,0.063 0.0472,0.0945 0,0.0945 -0.0134,0.18994 0,0.28348 0.003,0.022 0.0402,0.0261 0.0473,0.0472 0.01,0.0299 0,0.063 0,0.0945 0,0.0157 0.0111,0.0361 0,0.0472 -0.0111,0.0111 -0.0315,0 -0.0473,0"
       id="path4608"
       inkscape:connector-curvature="0" />
    <path
       style="fill:none;stroke:#000000;stroke-width:0.26458332px;stroke-linecap:butt;stroke-linejoin:miter;stroke-opacity:1"
       d="m 102.3843,124.40662 c 0.13799,0.41396 0.52964,1.43959 0.61421,2.03162 0.003,0.022 -0.0315,0.063 -0.0472,0.0473 -0.0157,-0.0157 0.0315,-0.0315 0.0472,-0.0473"
       id="path4610"
       inkscape:connector-curvature="0" />
    <path
       style="fill:none;stroke:#000000;stroke-width:0.26458332px;stroke-linecap:butt;stroke-linejoin:miter;stroke-opacity:1"
       d="m 103.9907,124.12314 c 1.1371,0.38152 -0.0305,0.95111 0.0472,1.41741 0.0107,0.0641 0.0345,0.12531 0.0472,0.18899 0.008,0.0425 0,0.0983 0,0.14174 0,0.0787 0,0.15749 0,0.23623 0,0.0247 0.006,0.17657 0,0.18899 -0.01,0.0199 -0.0373,0.0273 -0.0472,0.0473 -0.007,0.0141 0.005,0.0323 0,0.0473 -0.0111,0.0334 -0.0315,0.063 -0.0472,0.0945"
       id="path4614"
       inkscape:connector-curvature="0" />
    <path
       style="fill:none;stroke:#000000;stroke-width:0.26458332px;stroke-linecap:butt;stroke-linejoin:miter;stroke-opacity:1"
       d="m 103.9907,125.4933 c -0.17533,0.2798 0.64135,-1.26401 1.13393,-1.08668 0.31815,0.11454 0.59815,0.31557 0.89769,0.47247 0.0312,0.0163 0.0814,0.0145 0.0945,0.0472 0.0234,0.0585 0,0.12599 0,0.18899 0,0.0157 0.007,0.0332 0,0.0472 -0.01,0.0199 -0.0373,0.0273 -0.0472,0.0472 -0.007,0.0141 0.005,0.0323 0,0.0473 -0.0111,0.0334 -0.0473,0.0593 -0.0473,0.0945 0,0.0352 0.0387,0.0603 0.0473,0.0945 0.008,0.0305 -0.008,0.0639 0,0.0945 0.009,0.0342 0.0472,0.0593 0.0472,0.0945 0,0.0223 -0.0402,0.0261 -0.0472,0.0472 -0.01,0.0299 0.01,0.0646 0,0.0945 -0.007,0.0211 -0.0373,0.0273 -0.0473,0.0472 -0.007,0.0141 0.005,0.0323 0,0.0473 -0.0157,0.0315 -0.0315,0.063 -0.0472,0.0945 0,0.0157 0.005,0.0323 0,0.0472 -0.0111,0.0334 -0.0414,0.0598 -0.0472,0.0945 -0.0104,0.0621 0,0.126 0,0.18899 0,0.0157 0.007,0.0332 0,0.0473 -0.0983,0.19663 0.003,-0.0505 -0.0945,0.0473 -0.0111,0.0111 -0.0157,0.0472 0,0.0472 0.0695,0 0.0472,-0.12329 0.0472,-0.14174"
       id="path4616"
       inkscape:connector-curvature="0" />
    <path
       style="fill:none;stroke:#000000;stroke-width:0.26458332px;stroke-linecap:butt;stroke-linejoin:miter;stroke-opacity:1"
       d="m 108.14844,122.70573 c 0.11024,0.45672 0.24585,0.90805 0.33073,1.37016 0.0572,0.31134 0.0734,0.62909 0.0945,0.94494 0.0262,0.39317 0.0644,0.78751 0.0472,1.18118 -0.002,0.0445 -0.063,-0.063 -0.0945,-0.0945 -0.0472,-0.0472 -0.10165,-0.0883 -0.14174,-0.14174 -0.0211,-0.0282 -0.0277,-0.0652 -0.0472,-0.0945 -0.0472,-0.063 -0.0945,-0.12599 -0.14175,-0.18899 -0.0157,-0.0472 -0.0216,-0.099 -0.0472,-0.14174 -0.0229,-0.0382 -0.0678,-0.0589 -0.0945,-0.0945 -0.0423,-0.0564 -0.0554,-0.13039 -0.0945,-0.18899 -0.0247,-0.0371 -0.0698,-0.0574 -0.0945,-0.0945 -0.0195,-0.0293 -0.017,-0.0764 -0.0472,-0.0945 -0.0557,-0.0334 -0.12739,-0.0267 -0.18899,-0.0472 -0.0334,-0.0111 -0.0603,-0.0387 -0.0945,-0.0473 -0.0306,-0.008 -0.063,0 -0.0945,0 -0.0315,0 -0.0639,-0.008 -0.0945,0 -0.0342,0.009 -0.0611,0.0361 -0.0945,0.0473 -0.0149,0.005 -0.0323,-0.005 -0.0472,0 -0.12462,0.0415 -0.23904,0.17074 -0.33073,0.23624 -0.0287,0.0205 -0.0696,0.0224 -0.0945,0.0472 -0.0111,0.0111 0.0111,0.0361 0,0.0473 -0.063,0.063 -0.14174,0.0157 -0.14174,0.14174 0,0.0498 0.0473,0.0919 0.0473,0.14174 0,0.0352 -0.0403,0.06 -0.0473,0.0945 -0.009,0.0463 0,0.0945 0,0.14174 0,0.0315 -0.008,0.0639 0,0.0945 0.0121,0.0483 0.0352,0.0934 0.0473,0.14174 0.008,0.0306 -0.009,0.0642 0,0.0945 0.0274,0.0958 0.0729,0.18625 0.0945,0.28348 0.0102,0.0461 -0.015,0.0969 0,0.14174 0.018,0.0539 0.0691,0.091 0.0945,0.14174 0.0637,0.12742 0.01,0.15714 0.14174,0.23624 0.0427,0.0256 0.0955,0.0287 0.14174,0.0472 0.0327,0.0131 0.06,0.0403 0.0945,0.0473 0.0463,0.009 0.0945,0 0.14174,0 0.0472,0 0.0945,0 0.14174,0 0.063,0 0.12663,0.009 0.18899,0 0.0493,-0.007 0.0929,-0.0375 0.14174,-0.0473 0.0309,-0.006 0.0636,0.006 0.0945,0 0.0488,-0.01 0.0948,-0.0305 0.14174,-0.0472 0.1736,-0.062 0.35028,-0.11638 0.51972,-0.18899 0.0522,-0.0224 0.091,-0.0691 0.14174,-0.0945 0.0445,-0.0223 0.0972,-0.025 0.14174,-0.0472 0.0199,-0.01 0.0315,-0.0315 0.0472,-0.0473 0.0157,-0.0157 0.0472,-0.025 0.0472,-0.0472 0,-0.0157 -0.0315,0 -0.0472,0 -0.0157,0 -0.0315,0 -0.0472,0"
       id="path4618"
       inkscape:connector-curvature="0" />
    <rect
       style="fill:#ffffff;fill-opacity:1;stroke:#000000;stroke-width:0.66499996;stroke-linecap:round;stroke-linejoin:round;stroke-miterlimit:4;stroke-dasharray:none;stroke-opacity:1"
       id="rect4620"
       width="6.1893597"
       height="2.2206101"
       x="59.342262"
       y="112.68936" />
    <path
       style="fill:none;stroke:#000000;stroke-width:0.26458332px;stroke-linecap:butt;stroke-linejoin:miter;stroke-opacity:1"
       d="m 78.666294,110.18526 c 0.393724,-0.26773 0.7391,-0.62636 1.181174,-0.80319 1.068652,-0.42746 2.209956,-0.64493 3.307292,-0.99219 0.147883,-0.0468 0.280662,-0.13277 0.425225,-0.18899 0.139247,-0.0542 0.283482,-0.0945 0.425222,-0.14174 0.14174,-0.0473 0.28266,-0.097 0.425223,-0.14174 1.715844,-0.53802 3.43781,-1.05664 5.149926,-1.6064 0.015,-0.005 0.01114,-0.0361 0,-0.0472 -0.0249,-0.0249 -0.063,-0.0315 -0.09449,-0.0473"
       id="path4622"
       inkscape:connector-curvature="0" />
    <path
       style="fill:none;stroke:#000000;stroke-width:0.26458332px;stroke-linecap:butt;stroke-linejoin:miter;stroke-opacity:1"
       d="m 80.130951,107.63393 c -0.354701,1.19712 -0.181044,1.00083 -0.661459,1.74814 -0.04258,0.0662 -0.09208,0.12787 -0.14174,0.18899 -0.359859,0.4429 -0.744278,0.86637 -1.08668,1.32291 -0.01889,0.0252 0.06299,0 0.09449,0 0.0315,0 0.06342,0.005 0.09449,0 0.06405,-0.0107 0.125992,-0.0315 0.188989,-0.0472 0.063,-0.0157 0.126551,-0.0294 0.188987,-0.0472 0.09577,-0.0274 0.185812,-0.075 0.283482,-0.0945 0.03089,-0.006 0.063,0 0.09449,0 0.04725,-0.0157 0.09329,-0.0357 0.141742,-0.0472 0.283483,-0.063 0.566965,-0.126 0.850445,-0.18899 0.110244,-0.0157 0.221531,-0.0254 0.330729,-0.0473 0.206039,-0.0412 0.408176,-0.10053 0.614212,-0.14174 0.281813,-0.0564 0.568637,-0.0854 0.850448,-0.14174 0.127346,-0.0255 0.249872,-0.0731 0.377975,-0.0945 0.03107,-0.005 0.063,0 0.09449,0 0.0315,-0.0157 0.06033,-0.0387 0.0945,-0.0472 0.318648,-0.0797 -0.264303,0.17187 0.28348,-0.0473 0.02069,-0.008 0.02733,-0.0373 0.04725,-0.0472 0.06299,-0.0315 0.04725,0.0472 0.04725,-0.0472"
       id="path4624"
       inkscape:connector-curvature="0" />
    <path
       style="fill:none;stroke:#000000;stroke-width:0.26458332px;stroke-linecap:butt;stroke-linejoin:miter;stroke-opacity:1"
       d="m 91.659225,104.75186 c -0.04725,0.45672 -0.215239,0.91692 -0.14174,1.37016 0.03036,0.1872 0.31905,0.53511 0.425222,0.37798 0.421108,-0.62324 0.536951,-1.40654 0.755952,-2.12612 0.01884,-0.0619 -0.185849,-0.0467 -0.188987,-0.0472 -0.06405,-0.0107 -0.124142,-0.0507 -0.188989,-0.0472 -0.237995,0.0125 -0.47222,0.0649 -0.708705,0.0945 -0.01564,0.002 -0.0492,-0.0156 -0.04725,0 0.01611,0.12887 0.063,0.25199 0.09449,0.37798 z"
       id="path4626"
       inkscape:connector-curvature="0" />
    <path
       style="fill:none;stroke:#000000;stroke-width:0.26458332px;stroke-linecap:butt;stroke-linejoin:miter;stroke-opacity:1"
       d="m 94.635787,105.08259 c 0.204737,-0.39373 0.300416,-0.86738 0.614212,-1.18118 0.438176,-0.43818 0.474183,-0.0303 0.661458,0.0945 0.0131,0.009 0.03316,-0.007 0.04725,0 0.01992,0.01 0.03783,0.0271 0.04725,0.0472 0.951458,2.03884 0.944941,1.31881 0.944941,2.12612"
       id="path4628"
       inkscape:connector-curvature="0" />
    <path
       style="fill:none;stroke:#000000;stroke-width:0.26458332px;stroke-linecap:butt;stroke-linejoin:miter;stroke-opacity:1"
       d="m 101.01414,99.649181 c -0.25199,0.409479 -0.53039,0.803819 -0.75596,1.228419 -0.310674,0.58481 -0.569706,1.19564 -0.850442,1.79539 -0.131516,0.28096 -0.256879,0.56484 -0.377976,0.85044 -0.77416,1.82585 -2.315104,7.46385 -2.315104,5.48066"
       id="path4630"
       inkscape:connector-curvature="0" />
    <path
       style="fill:none;stroke:#000000;stroke-width:0.26458332px;stroke-linecap:butt;stroke-linejoin:miter;stroke-opacity:1"
       d="m 101.72284,104.75186 c -0.42522,0.15749 -0.94925,0.15771 -1.27567,0.47247 -0.14061,0.13558 -0.0906,0.72035 0,0.99218 0.0111,0.0334 0.0342,0.0618 0.0473,0.0945 0.0185,0.0462 0.004,0.16721 0.0472,0.14174 0.67189,-0.39994 1.30407,-0.86395 1.93712,-1.32292 0.0256,-0.0186 -0.0686,-0.0426 -0.0945,-0.0945 -0.007,-0.0141 0,-0.0315 0,-0.0473 -0.22049,-0.0787 -0.49591,-0.0707 -0.66146,-0.23623 -0.11192,-0.11192 -0.0189,-0.31675 -0.0472,-0.47247 -0.0157,-0.0862 -0.0552,-0.0276 -0.0945,-0.0473 -0.0199,-0.01 -0.0273,-0.0373 -0.0473,-0.0473 -0.0141,-0.007 -0.0315,0 -0.0472,0 -0.21268,0 0.0458,-0.008 -0.28349,0.0473 -0.0311,0.005 -0.0646,-0.01 -0.0945,0 -0.0211,0.007 -0.0273,0.0373 -0.0473,0.0473 -0.0141,0.007 -0.0332,-0.007 -0.0472,0 -0.0594,0.0297 -0.1664,0.20611 -0.18899,0.23623 -0.0134,0.0178 -0.0373,0.0273 -0.0472,0.0473 -0.007,0.0141 0.005,0.0323 0,0.0472 -0.0159,0.0477 -0.0745,0.1145 -0.0473,0.14174 0.0111,0.0111 0.0315,0 0.0473,0"
       id="path4632"
       inkscape:connector-curvature="0" />
    <path
       style="fill:none;stroke:#000000;stroke-width:0.26458332px;stroke-linecap:butt;stroke-linejoin:miter;stroke-opacity:1"
       d="m 106.73103,101.58631 c -0.97398,-0.52177 -0.95692,-0.78064 -1.74814,-0.70871 -0.0351,0.003 -0.0861,0.013 -0.0945,0.0473 -0.32539,1.33255 -0.60502,2.67588 -0.89769,4.016 -0.007,0.0308 -0.008,0.0639 0,0.0945 0.009,0.0342 0.0361,0.0611 0.0472,0.0945 0.0205,0.0616 0.0254,0.12784 0.0472,0.18899 0.063,0.15749 0.12599,0.31498 0.18899,0.47247 0,0.0472 -0.009,0.0954 0,0.14174 0.007,0.0345 0.0342,0.0618 0.0473,0.0945 0.0384,0.096 0.0391,0.15313 0.0945,0.23623 0.0124,0.0185 0.0402,0.0261 0.0473,0.0472 0.01,0.0299 -0.008,0.0639 0,0.0945 0.009,0.0342 0.0361,0.0611 0.0472,0.0945 0.009,0.0282 -0.0245,0.0945 0.0472,0.0945 0.0223,0 0.0315,-0.0315 0.0473,-0.0472"
       id="path4634"
       inkscape:connector-curvature="0" />
    <path
       style="fill:none;stroke:#000000;stroke-width:0.26458332px;stroke-linecap:butt;stroke-linejoin:miter;stroke-opacity:1"
       d="m 108.7154,101.82254 c -0.47247,0.0157 -0.95343,-0.0433 -1.41741,0.0472 -0.24329,0.0475 -0.40654,0.21755 -0.56696,0.37797 -0.0371,0.0371 -0.19412,0.18177 -0.18899,0.23624 0.1219,1.29526 0.26088,2.59059 0.47247,3.87426 0.0264,0.15998 0.16372,0.28019 0.23623,0.42522 0.0141,0.0282 -0.0175,0.0683 0,0.0945 0.0247,0.0371 0.0678,0.0589 0.0945,0.0945 0.0211,0.0282 0.0277,0.0652 0.0472,0.0945 0.0124,0.0185 0.0315,0.0315 0.0472,0.0473 0.0157,0.0157 0.0273,0.0373 0.0473,0.0473 0.0141,0.007 0.0472,-0.0158 0.0472,0 0,0.0157 -0.0332,0.007 -0.0472,0 -0.0584,-0.0292 -0.0473,-0.0456 -0.0473,-0.0945"
       id="path4636"
       inkscape:connector-curvature="0" />
    <path
       style="fill:none;stroke:#000000;stroke-width:0.26458332px;stroke-linecap:butt;stroke-linejoin:miter;stroke-opacity:1"
       d="m 102.38429,104.98803 c 0.59846,-0.26771 1.16206,-0.63367 1.7954,-0.80314 0.50297,-0.13459 1.03994,-0.0555 1.55915,-0.0945 0.11105,-0.008 0.21975,-0.038 0.33073,-0.0473 0.17264,-0.0144 0.34679,0.0104 0.51971,0 0.69332,-0.0416 1.38592,-0.0945 2.07887,-0.14174"
       id="path4638"
       inkscape:connector-curvature="0" />
    <path
       style="fill:none;stroke:#000000;stroke-width:0.26458332px;stroke-linecap:butt;stroke-linejoin:miter;stroke-opacity:1"
       d="m 81.973586,91.475445 c 0.456721,-0.141743 0.913442,-0.283482 1.370163,-0.425222 0.063,-0.0315 0.122661,-0.07081 0.188989,-0.0945 0.375211,-0.134004 0.757269,-0.248095 1.133928,-0.377976 0.08018,-0.02765 0.155776,-0.06768 0.236235,-0.09449 0.0616,-0.02053 0.128188,-0.02445 0.188987,-0.04725 0.06595,-0.02474 0.123042,-0.06976 0.188989,-0.0945 0.0608,-0.02281 0.127387,-0.02671 0.188987,-0.04725 0.08046,-0.02682 0.155779,-0.06767 0.236236,-0.09449 0.0616,-0.02053 0.125314,-0.03451 0.188989,-0.04725 0.01545,-0.0031 0.03231,0.005 0.04725,0 0.188986,-0.063 -0.0096,-0.04534 0.236235,-0.09449 0.03608,-0.0072 0.153035,0.01199 0.188987,0 0.03341,-0.01114 0.06109,-0.03611 0.09449,-0.04725 0.01495,-0.005 0.03316,0.007 0.04725,0 0.01992,-0.0099 0.02611,-0.0402 0.04725,-0.04725 0.02988,-0.0099 0.06461,0.0099 0.09449,0 0.02114,-0.007 0.02733,-0.03728 0.04725,-0.04725 0.01408,-0.007 0.03197,0.0038 0.04725,0 0.04831,-0.01209 0.09291,-0.03748 0.141742,-0.04725 0.03088,-0.0062 0.06394,0.0076 0.09449,0 0.03417,-0.0085 0.063,-0.0315 0.09449,-0.04725 0.0315,-0.01574 0.06519,-0.02771 0.0945,-0.04725 0.01852,-0.01236 0.02611,-0.0402 0.04725,-0.04725 0.05976,-0.01992 0.129225,0.01992 0.188986,0 0.02114,-0.007 0.02733,-0.03729 0.04725,-0.04725 0.02817,-0.01408 0.06632,0.01408 0.0945,0 0.01992,-0.0099 0.02733,-0.03729 0.04725,-0.04725 0.02817,-0.01408 0.06632,0.01408 0.09449,0 0.01992,-0.0099 0.02611,-0.0402 0.04725,-0.04725 0.215083,0 0.0027,0.02228 0.141743,-0.04725 0.0378,-0.01889 0.103941,0.01889 0.14174,0 0.01992,-0.0099 0.02733,-0.03729 0.04725,-0.04725 0.01873,-0.0094 0.132082,0.0097 0.141742,0 0.01114,-0.01114 -0.01114,-0.03611 0,-0.04725 0.01114,-0.01114 0.0315,0 0.04725,0 0.04725,0 0.09449,0 0.14174,0"
       id="path4640"
       inkscape:connector-curvature="0" />
    <path
       style="fill:none;stroke:#000000;stroke-width:0.26458332px;stroke-linecap:butt;stroke-linejoin:miter;stroke-opacity:1"
       d="m 82.587797,90.105282 c -0.236236,0.393724 -0.457432,0.796872 -0.708705,1.181174 -0.01926,0.02947 -0.06519,0.02771 -0.0945,0.04725 -0.159953,0.106638 -0.310282,0.227521 -0.472469,0.33073 -0.125992,0 0.01574,-0.01574 -0.04725,0.04725 -0.02101,0.02101 -0.08924,-0.03675 -0.04725,0.04725 0.04302,0.08603 0.03584,0.02769 0.09449,0.04725 0.03341,0.01114 0.06033,0.03871 0.09449,0.04725 0.03056,0.0076 0.06461,-0.0099 0.09449,0 0.02114,0.007 0.02733,0.03729 0.04725,0.04725 0.01408,0.007 0.0315,0 0.04725,0 0.04725,0 0.09449,0 0.14174,0 0.141742,0 0.283482,0 0.425222,0 0.0315,0 0.063,0 0.0945,0 0.01574,0 0.03231,-0.005 0.04725,0 0.03341,0.01114 0.06033,0.03871 0.09449,0.04725 0.01206,0.003 0.219805,0.0055 0.236236,0 0.183999,-0.06133 0.0044,-0.04725 0.188987,-0.04725 0.409474,0 0.818948,0 1.228423,0"
       id="path4642"
       inkscape:connector-curvature="0" />
    <path
       style="fill:none;stroke:#000000;stroke-width:0.26458332px;stroke-linecap:butt;stroke-linejoin:miter;stroke-opacity:1"
       d="m 80.31994,82.545758 c 0.04725,0.456721 0.151304,0.911103 0.14174,1.370163 -0.0064,0.305723 -0.121219,0.599506 -0.188987,0.897694 -0.01103,0.04856 -0.05482,0.09252 -0.04725,0.14174 0.025,0.162512 0.05459,0.333039 0.141739,0.472472 0.0236,0.03777 0.05971,-0.06667 0.09449,-0.0945 0.04434,-0.03547 0.09863,-0.05754 0.141742,-0.09449 0.118372,-0.101463 0.212355,-0.229267 0.33073,-0.33073 0.05979,-0.05125 0.129725,-0.08989 0.188986,-0.141739 0.06705,-0.05867 0.125992,-0.125992 0.188989,-0.18899 0.188987,-0.188989 0.37111,-0.385101 0.566965,-0.566965 0.0739,-0.06862 0.158764,-0.124428 0.236234,-0.188986 0.04964,-0.04137 0.08807,-0.105961 0.141742,-0.141743 0.0293,-0.01953 0.063,-0.0315 0.09449,-0.04725 0.0315,-0.01574 0.06108,-0.03611 0.09449,-0.04725 0.0616,-0.02053 0.127386,-0.02671 0.188989,-0.04725 0.03341,-0.01114 0.05996,-0.04034 0.09449,-0.04725 0.04633,-0.0093 0.09591,0.01146 0.141743,0 0.02162,-0.0054 0.02733,-0.03729 0.04725,-0.04725 0.02817,-0.01408 0.06632,0.01408 0.09449,0 0.0657,-0.03285 0.09449,-0.122285 0.09449,-0.188989"
       id="path4644"
       inkscape:connector-curvature="0" />
    <path
       style="fill:none;stroke:#000000;stroke-width:0.26458332px;stroke-linecap:butt;stroke-linejoin:miter;stroke-opacity:1"
       d="m 64.303197,69.836307 c -0.488217,0.0315 -0.977111,0.05387 -1.464656,0.0945 -1.255607,0.104632 -0.837486,-0.02233 -1.700893,1.464656 -0.01767,0.03045 0.02705,0.06565 0.04725,0.09449 0.09032,0.129021 0.193836,0.248491 0.283483,0.377978 0.05227,0.0755 0.0908,0.159824 0.14174,0.236233 0.04368,0.06552 0.103499,0.120153 0.141742,0.18899 0.04119,0.07414 0.04361,0.168386 0.09449,0.236236 0.996723,1.328962 0.126662,0.126658 0.661459,0.661458 0.04015,0.04015 0.05087,0.105389 0.09449,0.14174 0.0945,0.07874 0.188989,0.07874 0.283483,0.14174 0.03706,0.02471 0.05314,0.07795 0.09449,0.0945 0.138723,0.05549 0.28108,0.102428 0.425225,0.14174 0.03039,0.0083 0.063,0 0.09449,0 0.01574,0 0.03316,-0.007 0.04725,0 0.01992,0.0099 0.02733,0.03729 0.04725,0.04725 0.01408,0.007 0.0315,0 0.04725,0 0.01574,0 0.0315,0 0.04725,0"
       id="path4646"
       inkscape:connector-curvature="0" />
    <path
       style="fill:none;stroke:#000000;stroke-width:0.26458332px;stroke-linecap:butt;stroke-linejoin:miter;stroke-opacity:1"
       d="m 92.462426,85.994789 c -1.547329,0.331571 -1.346748,-0.168476 -1.27567,0.897694 0.0019,0.02737 -0.02484,0.230143 0.09449,0.18899 0.439909,-0.151694 0.862571,-0.352767 1.27567,-0.566965 0.271502,-0.14078 -1.24473,-0.519719 -0.09449,-0.519719 0.595122,0 0.440732,0.314503 0.566962,0.566965 0.237249,0.474499 -0.05951,-0.249094 0.188989,0.330729 0.05571,0.130001 0.0509,0.189056 0.09449,0.33073 0.04394,0.142801 0.108146,0.27964 0.141743,0.425222 0.01416,0.06138 0,0.125992 0,0.188989 0,0.0315 0.0076,0.06394 0,0.09449 -0.01209,0.04832 -0.0315,0.09449 -0.04725,0.141742 -0.0066,0.01992 -0.06157,0.206963 -0.0945,0.236233 -0.01119,0.0099 -0.39556,0.307031 -0.519715,0.377976 -0.06115,0.03495 -0.127836,0.05955 -0.188989,0.0945 -0.124762,0.07129 -0.139108,0.121116 -0.283483,0.14174 -0.06236,0.0089 -0.126849,-0.01035 -0.188987,0 -0.03474,0.0058 -0.05996,0.04034 -0.0945,0.04725 -0.04633,0.0093 -0.09449,0 -0.141739,0 -0.07875,0 -0.15902,0.01545 -0.236236,0 -0.02183,-0.0044 -0.02733,-0.03728 -0.04725,-0.04725 -0.09332,-0.04666 -0.07712,0.181343 -0.14174,-0.14174 -0.0069,-0.03453 0.03611,-0.06109 0.04725,-0.0945 0.005,-0.01495 0,-0.0315 0,-0.04725 0,-0.07019 -0.01151,-0.130239 0.04725,-0.188987 0.0249,-0.0249 0.06519,-0.02771 0.09449,-0.04725 0.01852,-0.01236 0.0315,-0.0315 0.04725,-0.04725"
       id="path4648"
       inkscape:connector-curvature="0" />
    <path
       style="fill:none;stroke:#000000;stroke-width:0.26458332px;stroke-linecap:butt;stroke-linejoin:miter;stroke-opacity:1"
       d="m 95.438988,85.947543 c -0.267734,0.393726 -0.636019,0.735361 -0.803201,1.181176 -0.04757,0.126852 0.154948,0.222346 0.236236,0.330729 0.0131,0.01746 0.120703,0.123765 0.14174,0.09449 0.359537,-0.500221 0.691679,-1.021395 0.992187,-1.559153 0.01717,-0.03074 -0.0594,-0.04432 -0.09449,-0.04725 -0.156945,-0.01307 -0.314981,0 -0.472469,0 z"
       id="path4650"
       inkscape:connector-curvature="0" />
    <path
       style="fill:none;stroke:#000000;stroke-width:0.26458332px;stroke-linecap:butt;stroke-linejoin:miter;stroke-opacity:1"
       d="m 97.376116,83.254463 c 0.125992,0.472469 0.246132,0.946539 0.377976,1.41741 0.09449,0.314981 0.188987,0.629962 0.283483,0.94494 0,0.01574 -0.0031,0.03181 0,0.04725 0.01273,0.06367 0.03548,0.125129 0.04725,0.188989 0.298773,1.621909 -0.260622,1.606399 0.330729,1.606399"
       id="path4652"
       inkscape:connector-curvature="0" />
    <path
       style="fill:none;stroke:#000000;stroke-width:0.26458332px;stroke-linecap:butt;stroke-linejoin:miter;stroke-opacity:1"
       d="m 100.91964,82.545758 c 0.4449,1.66838 0.25938,0.94303 0.56697,2.173361 0.17674,0.70697 0.302,1.198764 0.33073,2.031625 0.002,0.05675 -0.0963,-0.06043 -0.14174,-0.0945 -0.0294,-0.02204 -0.22652,-0.220036 -0.23624,-0.236234 -0.0256,-0.04271 -0.025,-0.0972 -0.0472,-0.141742 -0.0199,-0.03984 -0.0678,-0.05886 -0.0945,-0.09449 -0.0341,-0.04543 -0.059,-0.0974 -0.0945,-0.141742 -0.0556,-0.06957 -0.13553,-0.117716 -0.18898,-0.188987 -0.0211,-0.02817 -0.0167,-0.07702 -0.0472,-0.09449 -0.0865,-0.04942 -0.18771,-0.06713 -0.28348,-0.0945 -0.0151,-0.0043 -0.0315,0 -0.0472,0 -0.10228,0 -0.097,-0.01408 -0.18899,0.04725 -0.0185,0.01236 -0.0261,0.04021 -0.0472,0.04725 -0.0299,0.0099 -0.0683,-0.01746 -0.0945,0 -0.0293,0.01953 -0.0224,0.06959 -0.0473,0.09449 -0.0249,0.0249 -0.0696,0.02236 -0.0945,0.04725 -0.0249,0.0249 -0.0277,0.06519 -0.0473,0.09449 -0.0123,0.01852 -0.0373,0.02733 -0.0472,0.04725 -0.007,0.01408 0.007,0.03316 0,0.04725 -0.0254,0.05079 -0.0653,0.09305 -0.0945,0.14174 -0.107198,0.178665 -0.188986,0.558559 -0.188986,0.661458 0,0.206156 0.09801,0.39828 0.283486,0.47247 0.0292,0.01169 0.0639,-0.0076 0.0945,0 0.0342,0.0085 0.0603,0.0387 0.0945,0.04725 0.0306,0.0076 0.0639,-0.0076 0.0945,0 0.0342,0.0085 0.06,0.04034 0.0945,0.04725 0.0463,0.0093 0.0945,0 0.14174,0 0.0473,0 0.0959,0.01146 0.14174,0 0.0342,-0.0085 0.06,-0.04034 0.0945,-0.04725 0.0463,-0.0093 0.0945,0 0.14174,0 0.15749,-0.04725 0.31384,-0.09848 0.47247,-0.141743 0.0304,-0.0083 0.0646,0.0099 0.0945,0 0.0855,0.02848 0.0879,-0.07654 0.14175,-0.09449 0.0762,-0.0254 0.16167,-0.01744 0.23623,-0.04725 0.0146,-0.0058 -0.0111,-0.03611 0,-0.04725 0.0223,-0.02228 0.0722,0.02228 0.0945,0 0.0111,-0.01114 -0.0111,-0.03611 0,-0.04725 0.0111,-0.01114 0.0315,0 0.0472,0 0.0157,0 0.0315,0 0.0473,0"
       id="path4654"
       inkscape:connector-curvature="0" />
    <path
       style="fill:none;stroke:#000000;stroke-width:0.26458332px;stroke-linecap:butt;stroke-linejoin:miter;stroke-opacity:1"
       d="m 92.131687,93.12909 c -0.01575,0.01575 -0.02733,0.03735 -0.04725,0.04725 -0.01409,0.007 -0.03611,-0.01114 -0.04725,0 -0.03693,0.03693 0.04105,0.08219 0.04725,0.09449 0.01408,0.02818 -0.01408,0.06633 0,0.0945 0.05223,0.10447 0.02932,0.01466 0.09449,0.04725 0.05042,0.02521 0.04407,0.06927 0.09449,0.09449 0.01409,0.007 0.03317,-0.007 0.04725,0 0.216233,0.10812 -0.200488,-0.01958 0.141743,0.09449 0.01495,0.005 0.03317,-0.007 0.04725,0 0.01992,0.01 0.02611,0.04025 0.04725,0.04725 0.02988,0.01 0.06461,-0.0099 0.09449,0 0.02113,0.007 0.02873,0.03489 0.04725,0.04725 0.02931,0.01954 0.063,0.03151 0.0945,0.04725 0.01575,0 0.03317,-0.007 0.04725,0 0.01992,0.01 0.02733,0.03735 0.04725,0.04725 0.01409,0.007 0.03151,0 0.04725,0 0.03862,0 0.306789,0.008 0.330729,0 0.05387,-0.01795 0.05622,-0.12297 0.141742,-0.09449 0.01494,-0.005 0.03317,0.007 0.04725,0 0.03984,-0.01993 0.05743,-0.06979 0.09449,-0.0945 0.0293,-0.01954 0.07544,-0.01763 0.09449,-0.04725 0.267284,-0.415776 0.510722,-0.846516 0.755954,-1.27567 0.0078,-0.01368 0.007,-0.03317 0,-0.04725 -0.01,-0.01992 -0.04025,-0.02611 -0.04725,-0.04725 -0.114065,-0.342196 0.506208,0.411713 -0.28348,-0.377976 -0.255609,-0.365154 -0.472472,-0.755951 -0.708708,-1.13393 0.409475,-0.267732 0.810233,-0.549296 1.228425,-0.803197 0.02692,-0.01635 0.063,0 0.09449,0 0.09449,0 0.188988,0 0.283482,0 0.0315,0 0.063,0 0.09449,0 0.01575,0 0.04725,-0.01575 0.04725,0 0,0.01575 -0.0315,0 -0.04725,0"
       id="path4656"
       inkscape:connector-curvature="0" />
    <path
       style="fill:none;stroke:#000000;stroke-width:0.26458332px;stroke-linecap:butt;stroke-linejoin:miter;stroke-opacity:1"
       d="m 96.383929,91.144716 c 0.13245,1.28038 0.136321,1.120063 0.188986,2.173361 0.0024,0.04719 0.01265,0.187267 0,0.141743 -0.680389,-2.449399 -0.195759,-0.520044 -0.236235,-1.086681 -0.01352,-0.189161 -0.03542,-0.377692 -0.04725,-0.566965 -0.0039,-0.06287 0,-0.125992 0,-0.188989 0,-0.0315 -0.0062,-0.06361 0,-0.09449 0.02548,-0.127347 0.06774,-0.250891 0.0945,-0.377976 0.12828,-0.609343 0.01024,-0.351232 0.14174,-0.614212 0.06717,-0.134337 0.02236,-0.06959 0.14174,-0.188989 0.10047,-0.10047 0.05226,-0.06466 0.283482,-0.14174 0.01495,-0.005 0.03316,-0.007 0.04725,0 0.01992,0.01 0.02872,0.03489 0.04725,0.04725 0.342567,0.171286 -0.07471,-0.0498 0.14174,0.09449 0.06885,0.0459 0.09841,0.0295 0.14174,0.0945 0.08303,0.124542 0.0945,0.279842 0.0945,0.425222 0,0.04725 0.01495,0.09692 0,0.14174 -0.007,0.02114 -0.04021,0.02612 -0.04725,0.04725 -0.01,0.02988 0.0076,0.06394 0,0.09449 -0.0085,0.03416 -0.03611,0.06108 -0.04725,0.09449 -0.005,0.01495 0.007,0.03316 0,0.04725 -0.0099,0.01992 -0.03728,0.02733 -0.04725,0.04725 -0.007,0.01408 0.0098,0.03495 0,0.04725 -0.05565,0.06957 -0.125992,0.125992 -0.188986,0.188986 -0.01574,0.01574 -0.03729,0.02733 -0.04725,0.04725 -0.007,0.01408 0.007,0.03316 0,0.04725 -0.01016,0.02029 -0.187812,0.188203 -0.188989,0.188989 -0.0131,0.0087 -0.03611,-0.01114 -0.04725,0 -0.01114,0.01114 0.005,0.03231 0,0.04725 -0.01114,0.03341 -0.02236,0.06959 -0.04725,0.09449 -0.01114,0.01114 -0.03316,-0.007 -0.04725,0 -0.03984,0.01992 -0.05465,0.07458 -0.0945,0.0945 -0.01408,0.007 -0.03611,-0.01114 -0.04725,0 -0.01114,0.01114 0.01114,0.03611 0,0.04725 -0.01114,0.01114 -0.0315,0 -0.04725,0 -0.01574,0 -0.03611,0.01114 -0.04725,0 -0.0016,-0.0016 0,-0.130283 0,-0.141742"
       id="path4658"
       inkscape:connector-curvature="0" />
    <path
       style="fill:none;stroke:#000000;stroke-width:0.26458332px;stroke-linecap:butt;stroke-linejoin:miter;stroke-opacity:1"
       d="M 98.699033,91.002973 98.41555,89.727306"
       id="path4660"
       inkscape:connector-curvature="0" />
    <path
       style="fill:none;stroke:#000000;stroke-width:0.26458332px;stroke-linecap:butt;stroke-linejoin:miter;stroke-opacity:1"
       d="m 100.0692,90.483258 c 1.3919,-0.397688 1.05271,-0.717722 1.74814,0.04725 0.0237,0.02606 0.0391,0.06024 0.0472,0.09449 0.14956,0.628149 0.28678,1.259189 0.42522,1.889881 0.003,0.01389 0,0.174726 0,0.04725"
       id="path4662"
       inkscape:connector-curvature="0" />
    <path
       style="fill:none;stroke:#000000;stroke-width:0.26458332px;stroke-linecap:butt;stroke-linejoin:miter;stroke-opacity:1"
       d="m 103.47098,91.239209 c -0.77927,1.726922 1.49837,-2.039096 0.94494,-1.700892 -0.42855,0.261895 -0.68384,0.737481 -0.99219,1.133927 -0.029,0.0373 -0.004,0.09466 0,0.141743 0.0119,0.142121 0.0323,0.283392 0.0472,0.425222 0.0524,0.497541 -0.0651,0.360143 0.0945,0.519719 0.0157,0.01574 0.0279,0.0362 0.0472,0.04725 0.0917,0.05242 0.18326,0.108331 0.28348,0.14174 0.0459,0.01529 0.17336,0 0.23624,0 0.0945,0 0.18899,0 0.28348,0 0.0315,0 0.0637,0.0068 0.0945,0 0.11192,-0.02487 0.22195,-0.05824 0.33072,-0.09449 0.34224,-0.114078 -0.0745,0.01363 0.14175,-0.09449 0.0594,-0.02972 0.0945,0.06786 0.0945,-0.04725"
       id="path4664"
       inkscape:connector-curvature="0" />
    <path
       style="fill:none;stroke:#000000;stroke-width:0.26458332px;stroke-linecap:butt;stroke-linejoin:miter;stroke-opacity:1"
       d="m 107.2035,89.113094 c 2.22207,-0.573315 -1.92888,0.781979 -1.41741,1.086681 0.75876,0.45203 1.64663,0.640588 2.45684,0.992188 0.0323,0.01402 0.0574,0.06076 0.0473,0.09449 -0.0172,0.05726 -0.15001,0.39239 -0.28348,0.472472 -0.0427,0.02561 -0.099,0.02162 -0.14175,0.04725 -0.0382,0.02291 -0.0588,0.06777 -0.0945,0.09449 -0.0826,0.06193 -0.14095,0.04685 -0.23624,0.09449 -0.0821,0.04107 -0.14911,0.112702 -0.23623,0.141742 -0.31128,0.103759 -0.37291,0.09449 -0.61421,0.09449 -0.0315,0 -0.0636,0.0062 -0.0945,0 -0.0488,-0.0098 -0.0929,-0.03748 -0.14174,-0.04725 -0.0463,-0.0093 -0.0959,0.01146 -0.14174,0 -0.0483,-0.01207 -0.0939,-0.03356 -0.14174,-0.04725 -0.0624,-0.01783 -0.12494,-0.03657 -0.18899,-0.04725 -0.0311,-0.0052 -0.0655,0.01222 -0.0945,0 -0.27274,-0.114824 -0.53552,-0.251981 -0.80328,-0.377971"
       id="path4666"
       inkscape:connector-curvature="0" />
    <path
       style="fill:none;stroke:#000000;stroke-width:0.26458332px;stroke-linecap:butt;stroke-linejoin:miter;stroke-opacity:1"
       d="m 100.0692,90.483258 c 0.0633,1.772131 0.1066,0.800814 0,1.653645 -0.009,0.07154 0,0.170096 0,0.236236 0,0.14174 -0.0157,0.284348 0,0.425223 0.002,0.01566 0.0361,0.01114 0.0472,0 0.0111,-0.01114 -0.007,-0.03316 0,-0.04725 0.01,-0.01992 0.0315,-0.0315 0.0473,-0.04725"
       id="path4668"
       inkscape:connector-curvature="0"
       inkscape:export-xdpi="96"
       inkscape:export-ydpi="96" />
  </g>
</svg>
