<?xml version="1.0" encoding="UTF-8" standalone="no"?>
<!-- Created with Inkscape (http://www.inkscape.org/) -->

<svg
   xmlns:dc="http://purl.org/dc/elements/1.1/"
   xmlns:cc="http://creativecommons.org/ns#"
   xmlns:rdf="http://www.w3.org/1999/02/22-rdf-syntax-ns#"
   xmlns:svg="http://www.w3.org/2000/svg"
   xmlns="http://www.w3.org/2000/svg"
   xmlns:sodipodi="http://sodipodi.sourceforge.net/DTD/sodipodi-0.dtd"
   xmlns:inkscape="http://www.inkscape.org/namespaces/inkscape"
   width="46.169933mm"
   height="68.448074mm"
   viewBox="0 0 46.169933 68.448074"
   version="1.1"
   id="svg8"
   inkscape:version="0.92.4 (unknown)"
   sodipodi:docname="PricklyPear_pcb_outline.svg"
   inkscape:export-filename="C:\Users\Terri\Pictures\Pricklypear_pcb_outline.png"
   inkscape:export-xdpi="399.90573"
   inkscape:export-ydpi="399.90573">
  <defs
     id="defs2" />
  <sodipodi:namedview
     id="base"
     pagecolor="#ffffff"
     bordercolor="#666666"
     borderopacity="1.0"
     inkscape:pageopacity="0.0"
     inkscape:pageshadow="2"
     inkscape:zoom="1.6097213"
     inkscape:cx="5.9476641"
     inkscape:cy="134.59635"
     inkscape:document-units="mm"
     inkscape:current-layer="layer1"
     showgrid="true"
     inkscape:window-width="1875"
     inkscape:window-height="999"
     inkscape:window-x="0"
     inkscape:window-y="36"
     inkscape:window-maximized="1"
     fit-margin-top="0"
     fit-margin-left="0"
     fit-margin-right="0"
     fit-margin-bottom="0">
    <inkscape:grid
       type="xygrid"
       id="grid4513"
       originx="-39.969537"
       originy="-166.38486" />
  </sodipodi:namedview>
  <metadata
     id="metadata5">
    <rdf:RDF>
      <cc:Work
         rdf:about="">
        <dc:format>image/svg+xml</dc:format>
        <dc:type
           rdf:resource="http://purl.org/dc/dcmitype/StillImage" />
        <dc:title></dc:title>
      </cc:Work>
    </rdf:RDF>
  </metadata>
  <g
     inkscape:label="Layer 1"
     inkscape:groupmode="layer"
     id="layer1"
     transform="translate(-39.969537,-62.167064)">
    <path
       style="fill:none;fill-opacity:1;stroke:#000000;stroke-width:0.74199998;stroke-linecap:butt;stroke-linejoin:miter;stroke-miterlimit:4;stroke-dasharray:none;stroke-opacity:1"
       d="M49.150486 62.011718L47.9813124785 62.0306458145L46.8499988281 62.2352873281L45.7693676699 62.6088790215L44.752241625 63.134657375L43.8114433145 63.7958588691L42.9597953594 64.5757199844L41.575241 66.424367L40.8568993655 67.7369308136L40.3062455208 69.1694583445L39.9502308362 70.6749105591L39.8158066817 72.2062484235L39.9321189343 73.7295301463L40.3290520994 75.1829875333L41.0342776352 76.5183247596L42.075467 77.687246L43.554358875 78.6799774844L45.21012175 79.319589375L46.96538075 79.6649618281L48.742761 79.774975L47.7937860313 81.8797010156L47.5250270039 83.0119011309L47.416309 84.161523125L47.4847985586 85.3017148535L47.7476622188 86.4056241719L48.2220665195 87.4463989355L48.925178 88.397187L50.0224551563 89.5715982344L51.26686375 90.628545125L52.5190397187 91.6393859531L53.639619 92.675479L52.8030719514 93.8968967995L52.209434104 95.2219139097L51.8325117581 96.6250642051L51.6461112142 98.0808815597L51.7377076604 101.028524382L52.272395 103.8839L52.962678375 105.91167625L53.922805 107.82546L52.8268560937 107.8672925L51.5125625 107.7318325L50.4435009063 107.79550125L50.1457998242 108.019640547L50.083248 108.43472L51.783919 116.15983L52.496283707 116.026101113L53.0300564687 116.128310156L53.4187681211 116.422159434L53.6959495 116.86335125L54.0498447813 118.010571719L54.359989 119.21559L55.97906025 124.95554125L57.59855 130.69538L65.42598025 130.73468L73.253409 130.77398L75.11982325 123.4937675L76.986515 116.21363L77.6732872559 116.327282305L78.2271406094 116.283823437L78.6622355645 116.099988477L78.992732625 115.7925125L79.3965750781 114.873577813L79.551952 113.6609L80.676212 108.09733L78.40452 108.10385625L77.326934 108.077981406L76.667671 107.84153L77.2999213125 106.76905117L77.7802784375 105.634462484L78.36054825 103.235072375L78.5589506875 100.755593328L78.525956 98.308259L81.023780187 97.5870717417L82.2504816931 97.0521157675L83.3986637912 96.3872388613L84.4316436495 95.5718146478L85.2858305214 94.6022590213L85.9117303304 93.4679453495L86.259849 92.158247L86.2478105762 90.9663662715L86.0539114844 89.7967659219L85.6975136191 88.6615180801L85.197978875 87.572694875L83.8469463281 85.5826108906L82.155709 83.923091L81.2084563789 83.3458467383L80.1942280313 83.0289611562L79.1452417305 82.9502705586L78.09371525 83.08761125L77.0718663633 83.4188195352L76.1119128438 83.9217317187L75.2460724648 84.5741841055L74.506563 85.354013L72.978414 87.497903875L71.891217 89.898438L71.2755971094 88.387261875L70.205054125 87.1937355L68.8055710781 86.399259375L67.203131 86.085234L65.988873125 86.01551025L65.4199889844 85.979682L65.092151 85.782411L65.4896430646 84.3886647663L65.7051723328 82.9290102872L65.724406631 81.4478918814L65.533013786 79.9897538676L65.1129957642 78.5898366299L64.4502925463 77.3036374473L63.5302750018 76.1765215079L62.338314 75.253854L61.1901453438 74.6743665937L59.95195925 74.3163375L58.6714960313 74.2079586562L57.396496 74.377422L57.718992028 71.4538901681L57.6985136396 69.9467823509L57.5192559883 68.4599275306L57.1488477126 67.0189453471L56.5591474645 65.6759796891L55.7211799812 64.4699028192L54.60597 63.439587L53.3578764531 62.7354380312L52.000367375 62.2876715L50.5817886094 62.0589079688L49.150486 62.011768L49.150486 62.011718"
       id="path817"
       inkscape:connector-curvature="0" />
  </g>
</svg>
