<?xml version="1.0" encoding="UTF-8" standalone="no"?>
<!-- Created with Inkscape (http://www.inkscape.org/) -->

<svg
   xmlns:dc="http://purl.org/dc/elements/1.1/"
   xmlns:cc="http://creativecommons.org/ns#"
   xmlns:rdf="http://www.w3.org/1999/02/22-rdf-syntax-ns#"
   xmlns:svg="http://www.w3.org/2000/svg"
   xmlns="http://www.w3.org/2000/svg"
   xmlns:sodipodi="http://sodipodi.sourceforge.net/DTD/sodipodi-0.dtd"
   xmlns:inkscape="http://www.inkscape.org/namespaces/inkscape"
   width="210mm"
   height="297mm"
   viewBox="0 0 210 297"
   version="1.1"
   id="svg8"
   inkscape:version="0.92.2 (5c3e80d, 2017-08-06)"
   sodipodi:docname="Pricklypear_pcb_black.svg"
   inkscape:export-filename="C:\Users\Terri\Pictures\Pricklypear_pcb_outline.png"
   inkscape:export-xdpi="399.90573"
   inkscape:export-ydpi="399.90573">
  <defs
     id="defs2" />
  <sodipodi:namedview
     id="base"
     pagecolor="#ffffff"
     bordercolor="#666666"
     borderopacity="1.0"
     inkscape:pageopacity="0.0"
     inkscape:pageshadow="2"
     inkscape:zoom="4.5529794"
     inkscape:cx="184.10839"
     inkscape:cy="748.50927"
     inkscape:document-units="mm"
     inkscape:current-layer="layer1"
     showgrid="true"
     inkscape:window-width="2736"
     inkscape:window-height="1699"
     inkscape:window-x="-13"
     inkscape:window-y="-13"
     inkscape:window-maximized="1">
    <inkscape:grid
       type="xygrid"
       id="grid4513" />
  </sodipodi:namedview>
  <metadata
     id="metadata5">
    <rdf:RDF>
      <cc:Work
         rdf:about="">
        <dc:format>image/svg+xml</dc:format>
        <dc:type
           rdf:resource="http://purl.org/dc/dcmitype/StillImage" />
        <dc:title />
      </cc:Work>
    </rdf:RDF>
  </metadata>
  <g
     inkscape:label="Layer 1"
     inkscape:groupmode="layer"
     id="layer1">
    <path
       style="fill:none;fill-opacity:1;stroke:#000000;stroke-width:2.80440949;stroke-linecap:butt;stroke-linejoin:miter;stroke-miterlimit:4;stroke-dasharray:none;stroke-opacity:1"
       d="m 187.7832,236.37305 c -2.60623,-0.0492 -5.44391,0.10914 -8.52929,0.5 -27.07776,3.43022 -46.79586,64.83928 8.45898,62.58398 -17.71712,29.07256 4.2488,37.62372 18.21289,50.58594 -12.87419,10.18314 -11.0217,42.06083 1.60938,59.52539 l -16.29102,-0.16602 6.08203,27.62696 h 6.38672 l 15.49805,54.94531 56.10156,0.28125 14.0957,-54.97266 7.71485,-0.2539 5.35547,-26.49805 -17.67969,-0.17969 c 7.75493,-7.46871 11.40625,-20.4095 9.75781,-40.41601 0,0 42.99504,-6.28605 25.37305,-38.33985 -17.62199,-32.05379 -42.82563,-11.09009 -48.49024,16.63282 -2.67815,-18.88815 -9.44306,-21.47146 -28.46289,-21.3086 13.26182,-35.60729 -14.60982,-49.76344 -28.76562,-42.68554 0,0 12.66574,-47.12393 -26.42774,-47.86133 z"
       id="path817"
       inkscape:connector-curvature="0"
       sodipodi:nodetypes="sscccccccccccccscccs"
       transform="scale(0.26458333)" />
  </g>
</svg>
